/* XPM */
static char *_545837932426[] = {
/* columns rows colors chars-per-pixel */
"16 16 161 2 ",
"   c #14438F",
".  c #004B91",
"X  c #114590",
"o  c #164D94",
"O  c #005294",
"+  c #085696",
"@  c #0F5697",
"#  c #195397",
"$  c #165798",
"%  c #1B5598",
"&  c #185698",
"*  c #1E5699",
"=  c #185E9C",
"-  c #1C5E9C",
";  c #2D579B",
":  c #225A9B",
">  c #25589B",
",  c #225D9C",
"<  c #275E9E",
"1  c #2B599C",
"2  c #295C9D",
"3  c #30559A",
"4  c #08609B",
"5  c #14629D",
"6  c #1F619E",
"7  c #1E639F",
"8  c #21639F",
"9  c #2F609E",
"0  c #1D66A0",
"q  c #1F66A0",
"w  c #1369A0",
"e  c #1D68A1",
"r  c #1E69A1",
"t  c #1B6EA2",
"y  c #1E6CA2",
"u  c #2265A0",
"i  c #2566A0",
"p  c #216BA3",
"a  c #226BA2",
"s  c #2768A1",
"d  c #2968A2",
"f  c #3761A1",
"g  c #3B63A1",
"h  c #3C66A4",
"j  c #336EA6",
"k  c #2672A6",
"l  c #2474A7",
"z  c #2C72A7",
"x  c #2C73A7",
"c  c #3870A7",
"v  c #3771A8",
"b  c #3971A8",
"n  c #3F73A9",
"m  c #3975AA",
"M  c #3E74AA",
"N  c #347BAC",
"B  c #3A78AA",
"V  c #3A78AC",
"C  c #3A7FAF",
"Z  c #405FA0",
"A  c #4263A2",
"S  c #4564A2",
"D  c #466DA6",
"F  c #4869A5",
"G  c #4A68A4",
"H  c #4B68A4",
"J  c #486AA4",
"K  c #4A6EA7",
"L  c #4273AA",
"P  c #4175A9",
"I  c #4174AB",
"U  c #4374AB",
"Y  c #4375AB",
"T  c #4972AA",
"R  c #437EAF",
"E  c #4978AB",
"W  c #487BAD",
"Q  c #4D79AD",
"!  c #5173AB",
"~  c #5675AD",
"^  c #5079AF",
"/  c #587BB0",
"(  c #3780AE",
")  c #4680AF",
"_  c #4282B0",
"`  c #4482B1",
"'  c #4B83B1",
"]  c #4B8CB5",
"[  c #5280B2",
"{  c #5289B4",
"}  c #538AB7",
"|  c #538DB6",
" . c #588AB7",
".. c #5F89B5",
"X. c #5692BA",
"o. c #6781B1",
"O. c #6F86B4",
"+. c #668BB7",
"@. c #668AB9",
"#. c #618FBA",
"$. c #638FBA",
"%. c #6590B9",
"&. c #6096BB",
"*. c #6193BC",
"=. c #6893BA",
"-. c #6098BE",
";. c #7191BD",
":. c #7495BE",
">. c #7D92BD",
",. c #7995BE",
"<. c #689CC0",
"1. c #6B9EC0",
"2. c #769EC4",
"3. c #75A1C3",
"4. c #71A1C4",
"5. c #7CA6C8",
"6. c #829BC2",
"7. c #809EC3",
"8. c #879CC3",
"9. c #83A3C7",
"0. c #84A6C7",
"q. c #88A2C5",
"w. c #8CA2C6",
"e. c #8AA6C7",
"r. c #86AFC8",
"t. c #89A8C8",
"y. c #8DABCC",
"u. c #95A9C9",
"i. c #9BADCD",
"p. c #86B1CB",
"a. c #86B0CD",
"s. c #89B2CC",
"d. c #8DB6CE",
"f. c #90B0CC",
"g. c #93B0CF",
"h. c #99B1CF",
"j. c #94B5D1",
"k. c #93B8D0",
"l. c #A6C2D7",
"z. c #A9C0D7",
"x. c #A9C7DA",
"c. c #ACC4D9",
"v. c #ACCBDD",
"b. c #B5C2D9",
"n. c #B6C6DB",
"m. c #BAC7DC",
"M. c #B4CCDE",
"N. c #B4CEDE",
"B. c #BDCBDE",
"V. c #B9CFDC",
"C. c #B9CDDE",
"Z. c #BDD2E1",
"A. c #C0CBDE",
"S. c #C2CCDF",
"D. c #C3D4E3",
"F. c #C8D0E0",
"G. c #C9DAE5",
"H. c #E0E8F0",
"J. c #E1EBF1",
"K. c #E4ECF2",
"L. c None",
/* pixels */
"L.L.L.L.L.L.L.L.L.L.L.L.L.L.L.L.",
"L.L.L.L.L.B.e...%.f.L.L.L.L.L.L.",
"L.L.L.m.D 9 : I j s { l.L.L.L.L.",
"L.L.A.K X > # Y v u } _ &.L.L.L.",
"L.L.G X h @.% & = u r x 1.G.V.L.",
"L.>.3 ; 1 2 < [ $.= ` Z.J.s.r.L.",
"L.G ~ ! ,.7.Q , $.c.K.C.1.t x.L.",
"L.Z A h.5.X.r.z.H.D.' a X.w a.L.",
"L.S 8.M 2.x 4 v.0.d + r k l d.L.",
"L.H w.o 9.m O 4.E u *.q C ( N.L.",
"L.O.b.g ;.g. .j.c @ R 5 N ] L.L.",
"L.F.S.i./ ^ y.e.$ . q p y k.L.L.",
"L.L.o.G 6.n.@.Y M 6 V ` | L.L.L.",
"L.L.L.u.g T % Y b i V 3.L.L.L.L.",
"L.L.L.L.L.q.:.E P =.C.L.L.L.L.L.",
"L.L.L.L.L.L.L.L.L.L.L.L.L.L.L.L."
};
