/* XPM */
static char *_545837945400[] = {
/* columns rows colors chars-per-pixel */
"64 64 223 2 ",
"   c #042E84",
".  c #043386",
"X  c #0C3486",
"o  c #043788",
"O  c #043B8A",
"+  c #0A3C8B",
"@  c #0B3789",
"#  c #133C8A",
"$  c #193D8C",
"%  c #02448E",
"&  c #0A438D",
"*  c #01488F",
"=  c #15428D",
"-  c #1A418D",
";  c #0B4690",
":  c #024C91",
">  c #0C4B91",
",  c #144C93",
"<  c #1C4B92",
"1  c #164591",
"2  c #025394",
"3  c #0B5495",
"4  c #015997",
"5  c #095996",
"6  c #015D99",
"7  c #0C5C99",
"8  c #0E5798",
"9  c #145494",
"0  c #1C5395",
"q  c #145C9A",
"w  c #1B5C9B",
"e  c #195998",
"r  c #22458D",
"t  c #234C94",
"y  c #2D4F93",
"u  c #2C559B",
"i  c #245C9B",
"p  c #2A5C9D",
"a  c #265396",
"s  c #33569C",
"d  c #325B9D",
"f  c #385898",
"g  c #0B639B",
"h  c #0C689F",
"j  c #12649D",
"k  c #1C629E",
"l  c #11689D",
"z  c #1B6C9E",
"x  c #23619D",
"c  c #2D629C",
"v  c #266A9E",
"b  c #3E659E",
"n  c #35679E",
"m  c #3A5FA0",
"M  c #166CA2",
"N  c #1A6CA2",
"B  c #1A67A0",
"V  c #2565A0",
"C  c #2C63A0",
"Z  c #246CA3",
"A  c #2B6BA3",
"S  c #3464A1",
"D  c #356BA5",
"F  c #3B6CA4",
"G  c #3D6BA6",
"H  c #2472A4",
"J  c #2C73A4",
"K  c #2D75A9",
"L  c #2B79AA",
"P  c #2779AA",
"I  c #3472A5",
"U  c #3A7CA6",
"Y  c #3675AA",
"T  c #3C73AA",
"R  c #337BAC",
"E  c #3C7CAC",
"W  c #3A77A5",
"Q  c #425D98",
"!  c #45649D",
"~  c #48669E",
"^  c #5B709E",
"/  c #4365A4",
"(  c #436AA5",
")  c #4B6BA4",
"_  c #4B6EA9",
"`  c #436FA9",
"'  c #556DA2",
"]  c #4474A5",
"[  c #4974A5",
"{  c #4475AB",
"}  c #4B73AB",
"|  c #457CAD",
" . c #4C7BAE",
".. c #4778A6",
"X. c #5B74A7",
"o. c #5474AD",
"O. c #557CAA",
"+. c #5675AA",
"@. c #4B7EB0",
"#. c #447FB0",
"$. c #537EB1",
"%. c #5B7DB2",
"&. c #637AAA",
"*. c #647FB4",
"=. c #3A81AD",
"-. c #3C83B1",
";. c #4B85AC",
":. c #4684A9",
">. c #5684AD",
",. c #4483B1",
"<. c #4A83B2",
"1. c #4D8BB6",
"2. c #5484B4",
"3. c #5C83B4",
"4. c #538AB6",
"5. c #5B8BB5",
"6. c #548DB8",
"7. c #5C8CB9",
"8. c #5C93B4",
"9. c #5592BA",
"0. c #5B93BB",
"q. c #5F98BE",
"w. c #6D84AF",
"e. c #6384B6",
"r. c #628BB5",
"t. c #6D8CB3",
"y. c #638CB9",
"u. c #6C8BBA",
"i. c #6C86B5",
"p. c #7B8CB1",
"a. c #718EBC",
"s. c #7288B4",
"d. c #6D94B6",
"f. c #6494BD",
"g. c #6B94BD",
"h. c #629ABF",
"j. c #6898B8",
"k. c #7493BD",
"l. c #749EBC",
"z. c #7993B7",
"x. c #708EAC",
"c. c #7AA2BC",
"v. c #6E97C0",
"b. c #659CC0",
"n. c #6C9CC1",
"m. c #739CC2",
"M. c #7C9BC2",
"N. c #7197C0",
"B. c #6CA0C4",
"V. c #75A3C5",
"C. c #7CA9C9",
"Z. c #839BBC",
"A. c #8B9DBD",
"S. c #8896B6",
"D. c #83A6BB",
"F. c #9FB4BF",
"G. c #A4ABBE",
"H. c #829FC5",
"J. c #8CABC4",
"K. c #8BABCC",
"L. c #86A6C7",
"P. c #94A5C3",
"I. c #99A7C4",
"U. c #93ACC6",
"Y. c #9CABC6",
"T. c #86B2CE",
"R. c #94B3CC",
"E. c #9CB3CC",
"W. c #9FBACF",
"Q. c #94B4D1",
"!. c #9DBCD6",
"~. c #99B4D1",
"^. c #87B5D0",
"/. c #A3AFC9",
"(. c #A3BCCE",
"). c #ABB9CE",
"_. c #A3B4CB",
"`. c #A4B5D4",
"'. c #A5BCD4",
"]. c #AABCD4",
"[. c #A7BFD8",
"{. c #B1BFD7",
"}. c #A6C1D2",
"|. c #AAC3D3",
" X c #A3C3D9",
".X c #ABC5DB",
"XX c #B4C3D5",
"oX c #B6CAD7",
"OX c #B4C5DC",
"+X c #BCCCDA",
"@X c #B8C7D9",
"#X c #A9C0CE",
"$X c #BACEE1",
"%X c #B5CEE0",
"&X c #BDD2E3",
"*X c #C5CDDB",
"=X c #C3D2DD",
"-X c #C9D1DE",
";X c #C2D3E4",
":X c #CBD6E2",
">X c #C3D8E7",
",X c #CED9E2",
"<X c #CCDEEA",
"1X c #D3DCE4",
"2X c #D4DBE6",
"3X c #D2E2ED",
"4X c #DBE3EB",
"5X c #D8E1E7",
"6X c #DCE8F1",
"7X c #E1E6EB",
"8X c #E5EAEE",
"9X c #E8EBEF",
"0X c #E4ECF3",
"qX c #EBEEF2",
"wX c #E0E5F0",
"eX c #EEF1F4",
"rX c #EEF3F8",
"tX c #E7F0F5",
"yX c #F3F4F6",
"uX c #F3F6F9",
"iX c #F6F8FA",
"pX c #FEFEFE",
"aX c None",
/* pixels */
"aXaXaXaXaXaXaXaXaXaXaXaXaXaXaXaXaXaXaXaXaXaXaXaXaXaXaXaXaXaXaXaXaXaXaXaXaXaXaXaXaXaXaXaXaXaXaXaXaXaXaXaXaXaXaXaXaXaXaXaXaXaXaXaX",
"aXaXaXaXaXaXaXaXaXaXaXaXaXaXaXaXaXaXaXaXaXaXaXaXaXaXaXaXaXaXaXaXaXaXaXaXaXaXaXaXaXaXaXaXaXaXaXaXaXaXaXaXaXaXaXaXaXaXaXaXaXaXaXaX",
"aXaXaXaXaXaXaXaXaXaXaXaXaXaXaXaXaXaXaXaXaXaXaXaXaXaXaXaXaXaXaXaXaXaXaXaXaXaXaXaXaXaXaXaXaXaXaXaXaXaXaXaXaXaXaXaXaXaXaXaXaXaXaXaX",
"aXaXaXaXaXaXaXaXaXaXaXaXaXaXaXaXaXaXaXaXaXaXaXaXaXaXaXaXaXaXaXaXaXaXaXaXaXaXaXaXaXaXaXaXaXaXaXaXaXaXaXaXaXaXaXaXaXaXaXaXaXaXaXaX",
"aXaXaXaXaXaXaXaXaXaXaXaXaXaXaXaXaXaXaXaXaXaXaXaXaXaXaXaXaXaXaXaXaXaXaXaXaXaXaXaXaXaXaXaXaXaXaXaXaXaXaXaXaXaXaXaXaXaXaXaXaXaXaXaX",
"aXaXaXaXaXaXaXaXaXaXaXaXaXaXaXaXaXaXaXaXaXaXaXpXpXpXiXeX7X4X1X5X4X8XiXpXpXpXaXaXaXaXaXaXaXaXaXaXaXaXaXaXaXaXaXaXaXaXaXaXaXaXaXaX",
"aXaXaXaXaXaXaXaXaXaXaXaXaXaXaXaXaXaXaXaXpXpXiXeX].z.O.( c c i i c n ..r.J.+XqXpXpXaXaXaXaXaXaXaXaXaXaXaXaXaXaXaXaXaXaXaXaXaXaXaX",
"aXaXaXaXaXaXaXaXaXaXaXaXaXaXaXaXaXaXpXpX4XU.i.`.l.S % % % % % * * * * * > e I d.oXyXpXaXaXaXaXaXaXaXaXaXaXaXaXaXaXaXaXaXaXaXaXaX",
"aXaXaXaXaXaXaXaXaXaXaXaXaXaXaXaXpXpX1Xz.d & S 3.u v.y.w % % % > 2 : : : : : 2 2 q | _.tXpXaXaXaXaXaXaXaXaXaXaXaXaXaXaXaXaXaXaXaX",
"aXaXaXaXaXaXaXaXaXaXaXaXaXaXaXpX8XH.u + O O  .] O % G m.@.3 % % * * : : : : : 3 q Z :.(.eXiXaXaXaXaXaXaXaXaXaXaXaXaXaXaXaXaXaXaX",
"aXaXaXaXaXaXaXaXaXaXaXaXaXpXpXXX( + O O O O r.p O * % , 3.v.v.~.2.3 w A | 4.b.n.v.b.4.0.oXC.8XpXaXaXaXaXaXaXaXaXaXaXaXaXaXaXaXaX",
"aXaXaXaXaXaXaXaXaXaXaXaXpXyXA.t O O O O % & k., O % % % % V 4XpXqXK.v.7.@.Y V q 5 2 : E Q.J | =XpXaXaXaXaXaXaXaXaXaXaXaXaXaXaXaX",
"aXaXaXaXaXaXaXaXaXaXaXpX9Xw.= o O O O O O < v.% % % % % % { ;XiX&Xv.y.<.A 8 : : 2 2 2 1.7.1.4 A |.pXaXaXaXaXaXaXaXaXaXaXaXaXaXaX",
"aXaXaXaXaXaXaXaXaXaXpXyX@X/ o o @ O O O O S %.% % % O i b.@.i K.C : q D 4.y.7.#.V 7 6.'.Y b.4 4 v (.pXaXaXaXaXaXaXc.D.aXaXaXaXaX",
"aXaXaXaXaXaXaXaXaXpXqXA.u.%.u.a O O O + O @.` O O % { v.C % O b.V : : : : 3 B E 6.C.yXpXb.b.B 4 4 z |.pXaXaXJ.>.;.D.aXaXaXaXaXaX",
"aXaXaXaXaXaXaXaXpXiXs.) / . d k.%.0 O O O e.p O i y. .; % % % y.C : : : : : : : 2 6.6XwX,.,.#.4 6 4 J (.c.U U j.aXaXaXaXaXaXaXaX",
"aXaXaXaXaXaXaXaXpXI.# o.u . o + ` N._ = , N.< } y.p % % % % % 4.D * : : : 2 2 w f.f.K H 4 H q.4 4 6 6 g z 8.=XaXaXaXaXaXaXaXaXaX",
"aXaXaXaXaXaXaXpX:Xy . *.< o o O o 1 %.H.;X:XN.{ ; % % * % % % @.{ : : : : : Y m.E 4 : 2 2 7 n.j 4 4 g 4.+XiXpXaXaXaXaXaXaXF.aXaX",
"aXaXaXaXaXaXpXyX+.  # *.@ o @ O o O O ~.pXpXL.1 O % % % > % : { @.: : : q y.f.k 2 2 2 2 4 2 0.J 4 U #XyXpXpXpXpXaXaXaXD.8.aXaXaX",
"aXaXaXaXaXaXpX/.#   t %.@ o o @ @ O p ~.0X<Xu.y.3.D , % % % % Y 2.* : I m.| 3 2 : 2 2 2 4 2 R V.J.8XpXpXpXpXpXpXiX#X:.:.aXaXaXaX",
"aXaXaXaXaXpXqX!     m _ . o o . 1 %.u.p u i O ; p @.y.3.D 9 % D N.w 5.v.k : 2 2 2 2 2 4 2 j c.0XpXpXpXpXpXpXpX1Xj.z U aXaXaXaXaX",
"aXaXaXaXaXpX/.# .   _ m . o @ G N.` ; O O O % O % O ; i  .y.3.[.rX$X@.: : : 2 : 2 2 2 3 >.+XiXpXpXpXpXpXpXeXR.J g ;.aXaXaXaXaXaX",
"aXaXaXaXaXyX'     . %.t . < i.e.< o O O O O O ; ; t C G @.v.Q.eXpX6XE 3 * 2 2 2 2 2 Y (.yXpXpXpXpXpXpXiX4X8.g g 8.aXaXaXaXaXaXaX",
"aXaXaXaXpX*Xr .   $ s.1 _ N.S o + 1 a m { %.y.g.v.v.y.@.T p e v.wXQ.7.N.2.x 2 : x L.8XpXpXpXpXpXpXpX5Xc.C.h 6 U 8XaXaXaXaXaXaXaX",
"aXaXaXaXpXS.X   $ `.wX`.L.+.%.u.N.N.e.%.} S p 9 ; % % % % % % w M.v.3 8 { f.g.l.,XpXpXpXpXpXpXpXyXR.v =.1.4 g z ,XaXaXaXaXaXaXaX",
"aXaXaXaXiX'     m eXpX$Xo.( d t # + ; < 0 t , & % O % % % * * w 7.<.| : 2 O.,XpXpXpXpXpXpXpXiX}.L.L 6 h.z 6 6 g R.pXaXaXaXaXaXaX",
"aXaXaXpX2Xy     $ {.{.m . . o # / Z.{.,X5X2X-X`.d.c & % ; * : i y.e N.] E.eXpXpXpXpXpXpXpX5X5.5 K 1.L 9.6 g g 6 j.pXaXaXaXaXaXaX",
"aXaXaXpX*X$     / o.@   . + ) {.yXpXpXpXpXpXpXpXpX4XP.c % * * x 7.w !.qXpXpXpXpXpXpXpX4XL.f.8.R 1.&XQ.N 6 6 6 6 =.yXaXaXaXaXaXaX",
"aXaXaXpXI.X   $ N.# . . - H.qXpXpXpX0X<X>X>X3XuXpXpXpX1X>.% % C '.:XpXpXpXpXpXpXpXtXE.v 2 2 N ,.>XpX3Xl 4 6 g g J 4XaXaXaXaXaXaX",
"aXaXaXpXS.X   +./   . $ /.pXpXpX;Xg.J j 7 g M -.T.6XpXpXqXt...XXiXpXpXpXpXpXpXiXoX| 3 2 2 4 2 2 h.iX>XM 6 g 6 6 z =XaXaXaXaXaXaX",
"aXaXaXpXw.  t i.X   # P.pXpXqXm.q 2 5 7 6 6 6 6 6 P  XpXpXyXqXpXpXpXpXpXpXpX,Xr.e : 2 2 4 2 2 4 q.V.^.q.g 6 g g l oXaXaXaXaXaXaX",
"aXaXaXpX&.  *.s     *.uXpX0X2.: : ,.%X%X<.4 4 6 6 6 h ^.pXpXpXpXpXpXpXpXqX(.x 2 2 2 2 2 2 4 2 1.0.H h.,.1.6 6 g h |.aXaXaXaXaXaX",
"aXaXaXpX&.s *.    r :XpXiXy.* : : f.pXpXn.2 2 4 6 6 g h  XpXpXpXpXpXyXE.] g.w 2 2 2 2 2 2 2 Y n.7 M b.6 9.-.6 g g }.aXaXaXaXaXaX",
"aXaXaXpX*.i.y   . w.pXpX'.; * : * y.pXpXf.2 4 6 4 4 6 6 P 6XpXpXiX+XO.3 * Y 4.: : 2 2 2 2 N V.B 6 B B.7 g b.P 6 h |.aXaXaXaXaXaX",
"aXaXaXpXXXX.  X # {.pXrXT O * ; % 0.pXpXf.2 2 2 4 4 6 6 6 C.pXpX).9 * : : 3 f.k 2 2 2 2 q m.K 2 6 g B.g 6 M B.M l +XaXaXaXaXaXaX",
"aXaXaXpX@X$     y 7XpX$X> % % ; % y.pXpXf.: 2 2 4 4 4 6 g -.rXpXXX3 : : : : I 5.: 2 : 5 b.#.4 4 6 7 b.B 6 g P q.H =XaXaXaXaXaXaX",
"aXaXaXpX/.X     ~ yXpXK.O % * % % y.pXpXg.: 2 2 2 4 4 4 6 B <XpX2Xe : : : : 3 f.B : 2 4.7.4 2 4 4 4 B.M 6 6 g -.T.8XaXaXaXaXaXaX",
"aXaXaXpX*X$     X.iXpXa.O O O * % 5.pXpXf.: : 2 2 2 2 4 6 g &XpX8Xc * : : : : K m.K E v.7 2 4 4 5 6 b.N 6 6 M 9.}.iXaXaXaXaXaXaX",
"aXaXaXpX7Xf     X.iXpXi.O O O % O y.pXpXf.% : 2 2 2 2 4 6 7 %XpX0Xn ; : : 2 : f.iX0XQ.B : 2 2 4 4 6 V.<.B 1.b.P l.iXaXaXaXaXaXaX",
"aXaXaXaXiX&.    ) uXpXM.O @ + % O 5.pXpXg.% : : : 2 2 2 2 g >XpX4Xi : : : : : [.pXiX%X6.6.<.,.R K 4.0X6XV.-.h g }.aXaXaXaXaXaXaX",
"aXaXaXaXpXI.X   f 8XpX`.+ o O O O 7.pXpXg.> > 3 8 8 2 2 2 Z 6XpX-Xe * : : : : 4.6X0X0.K E ,.<.4.0.C.rXtX=.4 g H 5XaXaXaXaXaXaXaX",
"aXaXaXaXpX1Xr   - -XpX4Xa o O O O e.pXpX4X;X;X;X;X>Xm.: : q.pXpXE.* : * : : 2 : k y.#.: : 2 4 2 6 6 :.T.z 4 4 8.iXaXaXaXaXaXaXaX",
"aXaXaXaXaXS.# $ s.8XpXpXa.. o O O e.pXpXpXpXpXpXpXpX~.: 7 &XpXpXr.* : : : 3 2 : : V b.2 2 4 2 4 4 6 4 L B.g j #XaXaXaXaXaXaXaXaX",
"aXaXaXaXp.r ~ @XpXpXpXpX2Xm . @ o G '.[.[.[.[.[.[..Xy.: v.iXpXqX;.* > : : : : : 2 3 v.B 2 2 4 4 6 2 6 6 q.=.=.eXaXaXaXaXaXaXaXaX",
"aXaXaXp.f S.eXpXpXpXpXpXpXOXt . O @ O O O & % % * ; * @.0XpXyXE. .% : : : : 2 2 2 : 2.#.2 4 4 4 4 6 6 2 N C.}.pXaXaXaXaXaXaXaXaX",
"aXaXG.p.aXaXpXpXpXpXpXpXpXpXOXd . O O @ O % O % % ; 2.6XpXpXY.@.| % ; : : : > : : 2 Z b.2 4 2 4 4 2 6 H 9..XiXaXaXaXaXaXaXaXaXaX",
"aXaXaXaXaXaXaXpXpXpX7XP.1XpXpX2Xu.t o o o O O ; D Q.uXpXpXXXe { | * : : : 2 : 2 2 : 3 v.q 2 4 4 g R b.9.:.oXaXaXaXaXaXaXaXaXaXaX",
"aXaXaXaXaXaXaXpXqXI.f X f *XpXpXpX3X`.N.%.e.L.OXqXpXpXiX).i % } { * : : : : : 2 2 2 2 0.n.j j #.b.1.N 7 c.pXaXaXaXaXaXaXaXaXaXaX",
"aXaXaXaXaXaXaX/.Q X   . . t A.qXpXpXpXpXpXpXpXpXpXpX4Xz., * %  .{ % : : : : : 2 : : 7 .XpX.Xb.:.B 4 4 ;.qXaXaXaXaXaXaXaXaXaXaXaX",
"aXaXaXaXaXaX~ r $ y ! r . . + ! P.1XeXiXiXpXyXqX=XZ.c % % % % | T % : : : : 2 q A <.n.3XpX!.4 2 4 2 Y :XaXaXaXaXaXaXaXaXaXaXaXaX",
"aXaXaXaXS.^ ' p.).2XiXA.- . o . o < b i.1X7Xk.n , O O % O % 3 L.N.: 3 w T 5.v.v.f.,.Z Y !.Z 2 4 4 J oXpXaXaXaXaXaXaXaXaXaXaXaXaX",
"aXaXaXaXaXaXaXaXaXaXaXpXD.- . + o o o o.iXpX].%.%.%.$.@. .{ K.iXyXQ.v.y.2.Y k 3 2 : 2 7 n.7 2 4 I oXpXaXaXaXaXaXaXaXaXaXaXaXaXaX",
"aXaXaXaXaXaXaXaXaXaXaXaXpXY.t . o o o [ yXpXE.p S S F { { { '.pXpXOXN.@.V 3 : : : 2 : q B.5 5 U +XpXaXaXaXaXaXaXaXaXaXaXaXaXaXaX",
"aXaXaXaXaXaXaXaXaXaXaXaXaXpXXX! + . O & } u.g., O % O % % , M.R.m.w V #.f.k.f.,.Z 7 2 7 g.j 5.5XpXaXaXaXaXaXaXaXaXaXaXaXaXaXaXaX",
"aXaXaXaXaXaXaXaXaXaXaXaXaXaXpX4Xw.< O O O o S e.% % % % > k.{ % * * : * : 8 A #.f.m.f.6.R.R.yXaXaXaXaXaXaXaXaXaXaXaXaXaXaXaXaXaX",
"aXaXaXaXaXaXaXaXaXaXaXaXaXaXaXpXpX{.[ 1 O O O } } % O ; y.| % : * ; : : : : : : 2 q | |.iXpXaXaXaXaXaXaXaXaXaXaXaXaXaXaXaXaXaXaX",
"aXaXaXaXaXaXaXaXaXaXaXaXaXaXaXaXaXpXyX).+.t & & e.c % 5.3.% % * ; * : : : * 2 9 v d.*XiXaXaXaXaXaXaXaXaXaXaXaXaXaXaXaXaXaXaXaXaX",
"aXaXaXaXaXaXaXaXaXaXaXaXaXaXaXaXaXaXaXpXiX=XZ.[ F k.r.3.% % % % * * * > 9 v >.U.2XpXaXaXaXaXaXaXaXaXaXaXaXaXaXaXaXaXaXaXaXaXaXaX",
"aXaXaXaXaXaXaXaXaXaXaXaXaXaXaXaXaXaXaXaXaXaXpXyX1X1X1Xt.O.[ ] ] } O.d.J.XX4XpXpXaXaXaXaXaXaXaXaXaXaXaXaXaXaXaXaXaXaXaXaXaXaXaXaX",
"aXaXaXaXaXaXaXaXaXaXaXaXaXaXaXaXaXaXaXaXaXaXaXaXaXpXpXpXiXiXyXyXiXpXpXpXaXaXaXaXaXaXaXaXaXaXaXaXaXaXaXaXaXaXaXaXaXaXaXaXaXaXaXaX",
"aXaXaXaXaXaXaXaXaXaXaXaXaXaXaXaXaXaXaXaXaXaXaXaXaXaXaXaXaXaXaXaXaXaXaXaXaXaXaXaXaXaXaXaXaXaXaXaXaXaXaXaXaXaXaXaXaXaXaXaXaXaXaXaX",
"aXaXaXaXaXaXaXaXaXaXaXaXaXaXaXaXaXaXaXaXaXaXaXaXaXaXaXaXaXaXaXaXaXaXaXaXaXaXaXaXaXaXaXaXaXaXaXaXaXaXaXaXaXaXaXaXaXaXaXaXaXaXaXaX",
"aXaXaXaXaXaXaXaXaXaXaXaXaXaXaXaXaXaXaXaXaXaXaXaXaXaXaXaXaXaXaXaXaXaXaXaXaXaXaXaXaXaXaXaXaXaXaXaXaXaXaXaXaXaXaXaXaXaXaXaXaXaXaXaX",
"aXaXaXaXaXaXaXaXaXaXaXaXaXaXaXaXaXaXaXaXaXaXaXaXaXaXaXaXaXaXaXaXaXaXaXaXaXaXaXaXaXaXaXaXaXaXaXaXaXaXaXaXaXaXaXaXaXaXaXaXaXaXaXaX"
};
