/* XPM */
static char *_545837941256[] = {
/* columns rows colors chars-per-pixel */
"32 32 183 2 ",
"   c #052F84",
".  c #033286",
"X  c #093386",
"o  c #033688",
"O  c #033A89",
"+  c #0B3C8B",
"@  c #153D8C",
"#  c #02448D",
"$  c #0A438E",
"%  c #00488F",
"&  c #14428E",
"*  c #1D448E",
"=  c #0B4790",
"-  c #024C91",
";  c #0C4A91",
":  c #104790",
">  c #194691",
",  c #114E94",
"<  c #1C4C94",
"1  c #015494",
"2  c #0B5495",
"3  c #015997",
"4  c #0C5997",
"5  c #025E99",
"6  c #095B99",
"7  c #145296",
"8  c #1D5296",
"9  c #165698",
"0  c #1E5598",
"q  c #135B9A",
"w  c #1C5A99",
"e  c #214692",
"r  c #254B94",
"t  c #284B93",
"y  c #255399",
"u  c #235B9C",
"i  c #2D5D9D",
"p  c #295297",
"a  c #325598",
"s  c #335B9D",
"d  c #3A5A9C",
"f  c #0C639C",
"g  c #04619A",
"h  c #14649E",
"j  c #1C629E",
"k  c #13699E",
"l  c #1C699F",
"z  c #23629F",
"x  c #395FA0",
"c  c #1D66A0",
"v  c #146AA1",
"b  c #1C6AA2",
"n  c #2C63A1",
"m  c #246AA3",
"M  c #2B6DA5",
"N  c #2563A0",
"B  c #3367A2",
"V  c #3B65A2",
"C  c #356AA4",
"Z  c #3C6DA6",
"A  c #3F6EA8",
"S  c #2776A8",
"D  c #2E74A8",
"F  c #2874A5",
"G  c #3A73A6",
"H  c #3574A9",
"J  c #3C75AA",
"K  c #347CAC",
"L  c #3B7BAD",
"P  c #43609F",
"I  c #4965A1",
"U  c #436BA5",
"Y  c #496BA7",
"T  c #426FA8",
"R  c #4276AB",
"E  c #4C74AB",
"W  c #417CAD",
"Q  c #4B7CAE",
"!  c #5671A7",
"~  c #5174AD",
"^  c #5A76AD",
"/  c #5679AD",
"(  c #587BAC",
")  c #437FB0",
"_  c #497DB0",
"`  c #5A7AB0",
"'  c #667DB0",
"]  c #697FB0",
"[  c #3C84B1",
"{  c #4284AB",
"}  c #5183AF",
"|  c #4086B2",
" . c #4A85B3",
".. c #4D8AB3",
"X. c #5A83B3",
"o. c #528BB5",
"O. c #5D8BB8",
"+. c #5A92BB",
"@. c #5491B5",
"#. c #6C81AE",
"$. c #6C85B5",
"%. c #648DB6",
"&. c #6385B6",
"*. c #7389B5",
"=. c #738CB9",
"-. c #788EBA",
";. c #6798B6",
":. c #6D96BF",
">. c #659BBD",
",. c #6A9ABD",
"<. c #6591BC",
"1. c #7294BB",
"2. c #7D94BC",
"3. c #7898BD",
"4. c #75A2BB",
"5. c #669AC0",
"6. c #6E9BC1",
"7. c #769EC3",
"8. c #7D9EC1",
"9. c #6EA1C2",
"0. c #74A3C4",
"q. c #7DA5C4",
"w. c #7DA9C9",
"e. c #8597BE",
"r. c #8399BF",
"t. c #8C9CBE",
"y. c #819EC5",
"u. c #899DC1",
"i. c #83A2C3",
"p. c #8AA4C5",
"a. c #84ACC6",
"s. c #88A9C6",
"d. c #84A5C9",
"f. c #87ADCB",
"g. c #8AACCB",
"h. c #9AABCC",
"j. c #87B0C9",
"k. c #8EB3CB",
"l. c #94B4CD",
"z. c #9AB2CD",
"x. c #8CB6D1",
"c. c #8DB9D2",
"v. c #9AB0D0",
"b. c #9CBBD0",
"n. c #94BAD3",
"m. c #A0AFCD",
"M. c #A2B1CE",
"N. c #A0B7D0",
"B. c #A2BBD3",
"V. c #AABAD3",
"C. c #A9BFD9",
"Z. c #A7C1D6",
"A. c #A9C4D9",
"S. c #ADC8D9",
"D. c #A3C6DB",
"F. c #B3C5DB",
"G. c #BDC7DA",
"H. c #B3CADD",
"J. c #BBCADD",
"K. c #B7CFE1",
"L. c #BECCE1",
"P. c #BED3E0",
"I. c #C0CDDD",
"U. c #C3D4E4",
"Y. c #CBD5E3",
"T. c #CCDBE6",
"R. c #D0DAE6",
"E. c #D5DEE9",
"W. c #D8DDE8",
"Q. c #CFE2EC",
"!. c #D6E3EC",
"~. c #DBE4EC",
"^. c #DFE6F0",
"/. c #E2E7EF",
"(. c #E1E8EF",
"). c #E5EBF1",
"_. c #E9EEF3",
"`. c #ECF1F5",
"'. c #EFF5F8",
"]. c #F1F3F6",
"[. c #F4F6F9",
"{. c #FEFEFE",
"}. c None",
/* pixels */
"}.}.}.}.}.}.}.}.}.}.}.}.}.}.}.}.}.}.}.}.}.}.}.}.}.}.}.}.}.}.}.}.",
"}.}.}.}.}.}.}.}.}.}.}.}.}.}.}.}.}.}.}.}.}.}.}.}.}.}.}.}.}.}.}.}.",
"}.}.}.}.}.}.}.}.}.}.}.}.}.).E.T.!._.}.}.}.}.}.}.}.}.}.}.}.}.}.}.",
"}.}.}.}.}.}.}.}.}.{.I.V.3.B u w u C } s.R.}.}.}.}.}.}.}.}.}.}.}.",
"}.}.}.}.}.}.}.}.L./ < T n Z w ; % % 2 q G l.`.}.}.}.}.}.}.}.}.}.",
"}.}.}.}.}.}.].r.8 O : Z O ; J C.0.W J H M { 0.b.}.}.}.}.}.}.}.}.",
"}.}.}.}.}.[.p.& O O 8 x # , H l.<.J H N h o.o.b a.}.}.}.}.}.}.}.",
"}.}.}.}.[.u.Y V y O u u u C 7 n w - 4 j o.U.+.c f q.j.;.l.}.}.}.",
"}.}.}.}.u.s > + i E y.~ u = # n z - 1 C H m c K 3 D a.!.}.}.}.}.",
"}.}.}.Y.r s @ o O &.Q.X.u ; # w N 9 W m 1 1 3  .4.!.{.{.T.4.}.}.",
"}.}.}.$.X x o < V i y = u C Z O.f.J 4 - 1 4 o.T.{.{.[.n.{ a.}.}.",
"}.}.W.t @ Y x U y < u x C Z R d.U._ j 4 G Z.[.{.{.T.9.b b.}.}.}.",
"}.}.h.X =.I.^ x V U U i , = # w O.N Q B._.{.{.~.f.[ v k P.}.}.}.",
"}.}.]   ^ Y @ ~ B.E.~.R.v.Z % 9 Q f.!.{.{.`.Z...,...g g j.}.}.}.",
"}.{.P e p + u.`.U.w.9.x.Q._.1.X.T.{.{.[.F.J 6 b K.0.5 5 >.}.}.}.",
"}.].P P @ 2.].7.m O.v 3 v c.[.[.{.{.!.%.4 1 1 b +.+.v g @.}.}.}.",
"}.].' e a ).d.% J `.L 1 5 f D.{.(.8.J j - 1 q L m K K v @.}.}.}.",
"}.{.]   7.^.u % J `.) 1 3 3 [ '.1.- 2 G 1 6 L v f K f K 5.}.}.}.",
"}.}.^   h.L.= O J _.W - 1 3 v !.i.% - m L K b 1 f K 5 K S.}.}.}.",
"}.}.u.X M.C.+ O A _.J - - 1 h !.p.% -  ._.6.m m H c.| K S.}.}.}.",
"}.}.I.@ u.R.> o A '.l.5.7.N D `.%.- - N f.) b m L n.S F ^.}.}.}.",
"}.}.*.! Y.{.] . x L.U.Y.U.W f.`.Z - - - q H 1 1 3 v K >.}.}.}.}.",
"}.}.t.].{.{./.~ + + = : 7 :.`.B.z - - 1 1 L 6 1 3 v >.!.}.}.}.}.",
"}.}.}.{.Y.=.C.`.v.~ T ` C.].z.C u - - - - H L b K K k.}.}.}.}.}.",
"}.}.}.#.d * & =.T.).`.).U.%.= u u - 2 9 z 0.H.D 6 ..`.}.}.}.}.}.",
"}.}.}.t.}.G.d . & / /.r.V u u d.d.J G H m H ..1 W !.}.}.}.}.}.}.",
"}.}.}.}.}.}.Y.I O < z.X.y u B B.g._ L m q j L o.~.}.}.}.}.}.}.}.",
"}.}.}.}.}.}.}.(.2.y + i 7 $ G w - - 7 c H ,.F.}.}.}.}.}.}.}.}.}.",
"}.}.}.}.}.}.}.}.}.Y.2.U Q E u # ; 2 w G q.!.}.}.}.}.}.}.}.}.}.}.",
"}.}.}.}.}.}.}.}.}.}.}.`.W.G.i.q.p.B.Y.}.}.}.}.}.}.}.}.}.}.}.}.}.",
"}.}.}.}.}.}.}.}.}.}.}.}.}.}.}.}.}.}.}.}.}.}.}.}.}.}.}.}.}.}.}.}.",
"}.}.}.}.}.}.}.}.}.}.}.}.}.}.}.}.}.}.}.}.}.}.}.}.}.}.}.}.}.}.}.}."
};
