<?xml version="1.0" encoding="utf-8"?>
<!-- Generator: Adobe Illustrator 22.1.0, SVG Export Plug-In . SVG Version: 6.00 Build 0)  -->
<svg version="1.1" id="Layer_1" xmlns="http://www.w3.org/2000/svg" xmlns:xlink="http://www.w3.org/1999/xlink" x="0px" y="0px"
	 viewBox="0 0 470 300" style="enable-background:new 0 0 470 300;" xml:space="preserve">
<style type="text/css">
	.st0{opacity:0;fill:#FFFFFF;}
	.st1{fill:url(#SVGID_1_);}
	.st2{fill:url(#SVGID_2_);}
	.st3{fill:#FFFFFF;}
	.st4{fill:url(#SVGID_3_);}
	.st5{fill:url(#SVGID_4_);}
	.st6{fill:#231F20;}
	.st7{fill:none;}
</style>
<rect class="st0" width="470" height="300"/>
<g>
	<linearGradient id="SVGID_1_" gradientUnits="userSpaceOnUse" x1="187.1787" y1="112.1036" x2="280.3359" y2="112.1036">
		<stop  offset="0" style="stop-color:#072B83"/>
		<stop  offset="1" style="stop-color:#00679D"/>
	</linearGradient>
	<path class="st1" d="M217,111.8c5.8,0,10.9,2.5,14.4,6.5l48.9-28.2l-15,5.9c-7.6-9.6-19.4-15.8-32.6-15.8
		c-23,0-41.6,18.6-41.6,41.6c0,5.3,1,10.4,2.8,15l-6.7,7.1l11.7-6.8c-0.7-1.9-1-4-1-6.2C197.8,120.4,206.4,111.8,217,111.8z"/>
	<linearGradient id="SVGID_2_" gradientUnits="userSpaceOnUse" x1="189.6636" y1="130.4688" x2="282.8213" y2="130.4688">
		<stop  offset="0" style="stop-color:#072B83"/>
		<stop  offset="1" style="stop-color:#00679D"/>
	</linearGradient>
	<path class="st2" d="M282.8,97.5L235.3,125c0.6,1.9,1,3.9,1,6c0,10.6-8.6,19.2-19.2,19.2c-5.7,0-10.8-2.5-14.3-6.4l-13.1,7.5
		l11.6-2.3c7.6,8.8,18.9,14.4,31.5,14.4c23,0,41.6-18.6,41.6-41.6c0-5-0.9-9.8-2.5-14.2L282.8,97.5z"/>
	<path class="st3" d="M236.2,89.3c0,1.3-1,2.3-2.3,2.3c-1.3,0-2.3-1-2.3-2.3c0-1.3,1-2.3,2.3-2.3C235.2,87,236.2,88,236.2,89.3z"/>
	<path class="st3" d="M237.7,106c0,1.2-1,2.3-2.3,2.3c-1.2,0-2.3-1-2.3-2.3s1-2.3,2.3-2.3C236.7,103.7,237.7,104.7,237.7,106z"/>
	<path class="st3" d="M254.3,94.1c0,1.2-1,2.1-2.1,2.1c-1.2,0-2.1-1-2.1-2.1c0-1.2,1-2.1,2.1-2.1C253.3,92,254.3,92.9,254.3,94.1z"
		/>
	<path class="st3" d="M219.5,100.1c0,1.3-1.1,2.4-2.4,2.4c-1.3,0-2.4-1.1-2.4-2.4c0-1.3,1.1-2.4,2.4-2.4
		C218.4,97.7,219.5,98.8,219.5,100.1z"/>
	<path class="st3" d="M264.5,115.9c0,1.2-0.9,2.1-2.1,2.1c-1.2,0-2.1-0.9-2.1-2.1s0.9-2.1,2.1-2.1
		C263.6,113.8,264.5,114.8,264.5,115.9z"/>
	<circle class="st3" cx="248.7" cy="132.9" r="2.6"/>
	<path class="st3" d="M266.5,133.9c0,1.1-0.9,2-2,2c-1.1,0-2-0.9-2-2c0-1.1,0.9-2,2-2C265.6,131.9,266.5,132.8,266.5,133.9z"/>
	<circle class="st3" cx="254.2" cy="148.1" r="2.1"/>
	<path class="st3" d="M202.5,110.8c0,1.2-1,2.2-2.2,2.2c-1.2,0-2.2-1-2.2-2.2c0-1.2,1-2.2,2.2-2.2
		C201.5,108.6,202.5,109.6,202.5,110.8z"/>
	<path class="st3" d="M236.9,152.9c0,1.4-1.1,2.4-2.4,2.4c-1.4,0-2.4-1.1-2.4-2.4c0-1.4,1.1-2.4,2.4-2.4
		C235.8,150.5,236.9,151.6,236.9,152.9z"/>
	<path class="st3" d="M219.9,152.6c0,1.4-1.1,2.4-2.4,2.4c-1.4,0-2.4-1.1-2.4-2.4c0-1.4,1.1-2.4,2.4-2.4
		C218.8,150.2,219.9,151.3,219.9,152.6z"/>
	<linearGradient id="SVGID_3_" gradientUnits="userSpaceOnUse" x1="202.8504" y1="145.0924" x2="229.3291" y2="118.8363">
		<stop  offset="0" style="stop-color:#072B83"/>
		<stop  offset="1" style="stop-color:#00679D"/>
	</linearGradient>
	<path class="st4" d="M232.1,131c0,8.3-6.8,15.1-15.1,15.1c-8.3,0-15.1-6.8-15.1-15.1c0-8.3,6.8-15.1,15.1-15.1
		C225.4,115.9,232.1,122.7,232.1,131z"/>
	
		<radialGradient id="SVGID_4_" cx="237.1386" cy="62.0241" r="14.2161" gradientTransform="matrix(1.1915 0 0 0.4628 -46.2624 144.7044)" gradientUnits="userSpaceOnUse">
		<stop  offset="5.000000e-03" style="stop-color:#7D7D7D"/>
		<stop  offset="0.2045" style="stop-color:#A1A1A1"/>
		<stop  offset="0.417" style="stop-color:#C0C0C0"/>
		<stop  offset="0.6243" style="stop-color:#D6D6D6"/>
		<stop  offset="0.8221" style="stop-color:#E3E3E3"/>
		<stop  offset="1" style="stop-color:#E8E8E8"/>
	</radialGradient>
	<path class="st5" d="M260,173.4c0,0.7-10.6,1.3-23.7,1.3c-13.1,0-23.7-0.6-23.7-1.3c0-0.7,10.6-1.3,23.7-1.3
		C249.4,172.1,260,172.7,260,173.4z"/>
	<g>
		<path class="st6" d="M118.6,214.1H133v5.1h-19.6v-35.4h5.2V214.1z"/>
		<path class="st6" d="M159.3,183.8h5.1v23.6c0,1.6-0.3,3.2-0.9,4.6c-0.6,1.4-1.5,2.6-2.6,3.7c-1.1,1-2.4,1.9-3.8,2.5
			c-1.4,0.6-3,0.9-4.7,0.9c-1.6,0-3.2-0.3-4.6-0.9c-1.4-0.6-2.7-1.4-3.8-2.5c-1.1-1-1.9-2.3-2.5-3.7c-0.6-1.4-0.9-2.9-0.9-4.6v-23.6
			h5.1v23.6c0,0.9,0.2,1.8,0.5,2.6c0.4,0.8,0.8,1.5,1.4,2.2c0.6,0.6,1.3,1.1,2.2,1.5c0.8,0.4,1.7,0.5,2.6,0.5c1,0,1.9-0.2,2.7-0.5
			c0.8-0.4,1.6-0.8,2.2-1.5c0.6-0.6,1.1-1.3,1.5-2.2c0.4-0.8,0.5-1.7,0.5-2.6V183.8z"/>
		<path class="st6" d="M176.9,219.2H172v-36l22.8,27.3v-26.7h4.9v35.4H195l-18.1-22.3V219.2z"/>
		<path class="st6" d="M207.3,219l14.4-35.3l14.4,35.3h-5.3l-1.1-2.8h-16.1l-1.1,2.8H207.3z M215.4,211.7H228l-6.3-16.2L215.4,211.7
			z"/>
		<path class="st6" d="M268,199.8c-0.5,1.4-1.1,2.7-2,3.9c-0.9,1.2-2,2.1-3.3,2.9c-0.1,0.1-0.1,0.1-0.2,0.1c-0.1,0-0.2,0.1-0.2,0.1
			l6.2,12.2h-5.4l-5.4-10.6c-0.4,0.1-0.8,0.1-1.2,0.1c-0.4,0-0.8,0-1.3,0h-6.3v10.5h-5.2v-35.4h11.5c1.4,0,2.8,0.2,4.1,0.6
			c1.3,0.4,2.4,0.9,3.5,1.5c2.6,1.6,4.4,3.9,5.3,6.9c0,0.2,0.1,0.3,0.1,0.4c0,0.1,0.1,0.3,0.1,0.4v0.2c0.1,0.2,0.1,0.3,0.1,0.5
			c0,0.2,0,0.4,0.1,0.6v0c0,0.2,0,0.4,0,0.6c0,0.2,0,0.4,0,0.6v0v0.1c0,0.2,0,0.4,0,0.6c0,0.2,0,0.4,0,0.6v0.1
			c0,0.2-0.1,0.4-0.1,0.6c0,0.2-0.1,0.4-0.1,0.6v0.2C268.1,199.2,268.1,199.5,268,199.8z M255.8,204.2c1.1,0,2-0.2,2.9-0.7
			c0.9-0.5,1.6-1,2.3-1.8c0.6-0.7,1.2-1.6,1.5-2.5c0.4-0.9,0.6-1.9,0.6-3c0-1-0.2-2-0.6-2.9c-0.4-1-0.9-1.8-1.5-2.5
			c-0.6-0.7-1.4-1.3-2.3-1.8c-0.9-0.5-1.9-0.7-2.9-0.7h-6.9v15.9H255.8z"/>
		<path class="st6" d="M276.1,183.8h5.2v35.3h-5.2V183.8z"/>
		<path class="st6" d="M307.6,183.8h5.1v23.6c0,1.6-0.3,3.2-0.9,4.6c-0.6,1.4-1.5,2.6-2.6,3.7c-1.1,1-2.4,1.9-3.8,2.5
			c-1.4,0.6-3,0.9-4.7,0.9c-1.6,0-3.2-0.3-4.6-0.9c-1.4-0.6-2.7-1.4-3.8-2.5c-1.1-1-1.9-2.3-2.5-3.7c-0.6-1.4-0.9-2.9-0.9-4.6v-23.6
			h5.1v23.6c0,0.9,0.2,1.8,0.5,2.6c0.4,0.8,0.8,1.5,1.4,2.2c0.6,0.6,1.3,1.1,2.2,1.5c0.8,0.4,1.7,0.5,2.6,0.5c1,0,1.9-0.2,2.7-0.5
			c0.8-0.4,1.6-0.8,2.2-1.5c0.6-0.6,1.1-1.3,1.5-2.2c0.4-0.8,0.5-1.7,0.5-2.6V183.8z"/>
		<path class="st6" d="M350,183.8l6.6,35.4h-5.3l-3.4-19.6l-9.5,20.2l-9.4-20.2l-3.4,19.6h-5.3l6.6-35.4l11.6,24.3L350,183.8z"/>
	</g>
	
		<rect x="210.2" y="88.1" transform="matrix(0.5007 -0.8656 0.8656 0.5007 21.9435 230.2292)" class="st3" width="0.8" height="16"/>
	<rect x="210" y="90.6" transform="matrix(0.1992 -0.98 0.98 0.1992 86.451 287.7568)" class="st3" width="18.6" height="0.8"/>
	
		<rect x="198.8" y="105.1" transform="matrix(0.8489 -0.5286 0.5286 0.8489 -24.1646 126.347)" class="st3" width="20.2" height="0.8"/>
	<polygon class="st3" points="191.4,127.3 190.7,126.9 200,110.6 200.6,111 	"/>
	
		<rect x="200.1" y="108" transform="matrix(0.9908 -0.1353 0.1353 0.9908 -12.6616 30.484)" class="st3" width="35.5" height="0.8"/>
	
		<rect x="225.9" y="93.7" transform="matrix(0.317 -0.9484 0.9484 0.317 56.8345 285.0088)" class="st3" width="0.7" height="18.6"/>
	
		<rect x="233.3" y="99.8" transform="matrix(0.8278 -0.561 0.561 0.8278 -14.2221 153.988)" class="st3" width="20.8" height="0.8"/>
	
		<rect x="192.5" y="101.1" transform="matrix(0.1759 -0.9844 0.9844 0.1759 66.5862 282.4066)" class="st3" width="19" height="0.7"/>
	
		<rect x="215.8" y="94.3" transform="matrix(0.8362 -0.5484 0.5484 0.8362 -14.9804 139.257)" class="st3" width="19.6" height="0.7"/>
	
		<rect x="227.1" y="78.2" transform="matrix(0.5058 -0.8626 0.8626 0.5058 38.592 238.5642)" class="st3" width="0.8" height="14.7"/>
	
		<rect x="233.7" y="87.4" transform="matrix(0.9877 -0.1562 0.1562 0.9877 -10.7075 39.1779)" class="st3" width="20.4" height="0.8"/>
	
		<rect x="234.1" y="89.3" transform="matrix(0.9971 -7.569663e-02 7.569663e-02 0.9971 -6.7201 18.0314)" class="st3" width="0.8" height="16.7"/>
	
		<rect x="242.7" y="82.2" transform="matrix(0.2608 -0.9654 0.9654 0.2608 91.0555 302.5783)" class="st3" width="0.7" height="19.2"/>
	<rect x="249" y="89.9" transform="matrix(0.2031 -0.9792 0.9792 0.2031 113.4489 319.846)" class="st3" width="8.4" height="0.7"/>
	
		<rect x="245.4" y="124.6" transform="matrix(0.6283 -0.7779 0.7779 0.6283 -1.9775 245.8031)" class="st3" width="21.8" height="0.8"/>
	
		<rect x="251.5" y="133" transform="matrix(0.9497 -0.3133 0.3133 0.9497 -31.4855 86.0182)" class="st3" width="0.8" height="15.9"/>
	
		<rect x="234.2" y="150.3" transform="matrix(0.9763 -0.2162 0.2162 0.9763 -26.8043 56.4167)" class="st3" width="20.4" height="0.8"/>
	
		<rect x="223.3" y="157.5" transform="matrix(0.6739 -0.7389 0.7389 0.6739 -41.6371 221.3994)" class="st3" width="13.4" height="0.8"/>
	
		<rect x="221.1" y="151" transform="matrix(0.7945 -0.6073 0.6073 0.7945 -50.1822 166.8839)" class="st3" width="0.7" height="13.2"/>
	
		<rect x="225.6" y="144.1" transform="matrix(3.347352e-02 -0.9994 0.9994 3.347352e-02 65.8588 373.3574)" class="st3" width="0.8" height="17"/>
	
		<rect x="244" y="145.2" transform="matrix(0.2414 -0.9704 0.9704 0.2414 34.6219 355.0476)" class="st3" width="0.8" height="20.4"/>
	
		<rect x="249.7" y="152.7" transform="matrix(3.384726e-02 -0.9994 0.9994 3.384726e-02 92.6796 401.9272)" class="st3" width="9.1" height="0.8"/>
	
		<rect x="253.7" y="144.9" transform="matrix(0.9171 -0.3986 0.3986 0.9171 -36.2294 116.3622)" class="st3" width="16" height="0.7"/>
	
		<rect x="266.4" y="133.7" transform="matrix(0.8591 -0.5119 0.5119 0.8591 -33.1691 156.0314)" class="st3" width="0.8" height="9"/>
	
		<rect x="256.6" y="126.4" transform="matrix(6.210098e-02 -0.9981 0.9981 6.210098e-02 107.3185 382.0316)" class="st3" width="0.8" height="15.1"/>
	
		<rect x="263.8" y="131.5" transform="matrix(0.8804 -0.4742 0.4742 0.8804 -30.3805 143.3412)" class="st3" width="10.4" height="0.7"/>
	
		<rect x="268" y="114.6" transform="matrix(0.7763 -0.6303 0.6303 0.7763 -17.4844 196.6631)" class="st3" width="0.7" height="16.7"/>
	
		<rect x="263.4" y="116.5" transform="matrix(0.9972 -7.426682e-02 7.426682e-02 0.9972 -8.5875 19.9366)" class="st3" width="0.8" height="17.9"/>
	
		<rect x="259.8" y="110.9" transform="matrix(0.4167 -0.909 0.909 0.4167 53.6624 306.2664)" class="st3" width="11.4" height="0.7"/>
	<polygon class="st7" points="239.6,113.7 245.5,110.3 235.9,106.7 	"/>
	<polygon class="st7" points="255.5,113.3 262.2,115.7 260.6,110.3 	"/>
	<polygon class="st3" points="262.2,115.7 263,116.1 261.3,109.9 260.6,110.3 	"/>
	<polygon class="st3" points="254.4,86 253.7,86.2 258.4,102.8 259.1,102.4 	"/>
	<polygon class="st3" points="235.9,106.7 235,106.4 235.1,106 234.8,106.2 238.9,114.1 239.6,113.7 	"/>
	<polygon class="st3" points="249.1,133.6 249.7,133.3 243.1,120.5 242.4,120.8 	"/>
	<polygon class="st3" points="263.1,116.3 262.4,116.5 262.2,115.7 255.5,113.3 254.7,113.7 263,116.8 263.2,116.1 263,116.1 	"/>
	<polygon class="st3" points="235.9,106.7 245.5,110.3 246.3,109.8 235.3,105.6 235.1,106 235.5,105.8 	"/>
	<polygon class="st3" points="262.4,116.5 263.1,116.3 263,116.1 262.2,115.7 	"/>
	<polygon class="st3" points="235.9,106.7 235.5,105.8 235.1,106 235,106.4 	"/>
	<polygon class="st3" points="234.1,152.9 234.9,152.9 235.1,137.6 234.3,139.3 	"/>
	<polygon class="st3" points="235.5,106 234.8,106 234.6,116.6 235.4,116.1 	"/>
	<g>
		<path class="st3" d="M212,120h4.3v15.7h9.8v3.9H212V120z"/>
	</g>
</g>
</svg>
