<?xml version="1.0" encoding="UTF-8" standalone="no"?>
<!-- Generator: Adobe Illustrator 22.1.0, SVG Export Plug-In . SVG Version: 6.00 Build 0)  -->

<svg
   xmlns:dc="http://purl.org/dc/elements/1.1/"
   xmlns:cc="http://creativecommons.org/ns#"
   xmlns:rdf="http://www.w3.org/1999/02/22-rdf-syntax-ns#"
   xmlns:svg="http://www.w3.org/2000/svg"
   xmlns="http://www.w3.org/2000/svg"
   xmlns:xlink="http://www.w3.org/1999/xlink"
   xmlns:sodipodi="http://sodipodi.sourceforge.net/DTD/sodipodi-0.dtd"
   xmlns:inkscape="http://www.inkscape.org/namespaces/inkscape"
   version="1.1"
   id="Layer_1"
   x="0px"
   y="0px"
   viewBox="0 0 255 255"
   xml:space="preserve"
   inkscape:version="0.91 r13725"
   sodipodi:docname="xln_logo.svg"
   width="255"
   height="255"
   inkscape:export-filename="/home/esavard/Projets/lunarium/src/qt/res/src/xln_logo_white.png"
   inkscape:export-xdpi="90"
   inkscape:export-ydpi="90"><metadata
     id="metadata5309"><rdf:RDF><cc:Work
         rdf:about=""><dc:format>image/svg+xml</dc:format><dc:type
           rdf:resource="http://purl.org/dc/dcmitype/StillImage" /><dc:title></dc:title></cc:Work></rdf:RDF></metadata><defs
     id="defs5307"><linearGradient
       inkscape:collect="always"
       id="linearGradient7630"><stop
         style="stop-color:#000000;stop-opacity:1;"
         offset="0"
         id="stop7632" /><stop
         style="stop-color:#000000;stop-opacity:0;"
         offset="1"
         id="stop7634" /></linearGradient><linearGradient
       inkscape:collect="always"
       id="linearGradient7281"><stop
         style="stop-color:#ffffff;stop-opacity:1;"
         offset="0"
         id="stop7283" /><stop
         style="stop-color:#ffffff;stop-opacity:0;"
         offset="1"
         id="stop7285" /></linearGradient><linearGradient
       y2="112.1036"
       x2="280.33591"
       y1="112.1036"
       x1="187.1787"
       gradientUnits="userSpaceOnUse"
       id="SVGID_1_"
       gradientTransform="matrix(2.5269502,0,0,2.5269502,-465.8333,-179.78253)"><stop
         id="stop5144"
         style="stop-color:#072B83"
         offset="0" /><stop
         id="stop5146"
         style="stop-color:#00679D"
         offset="1" /></linearGradient><linearGradient
       y2="130.4688"
       x2="282.82129"
       y1="130.4688"
       x1="189.6636"
       gradientUnits="userSpaceOnUse"
       id="SVGID_2_"
       gradientTransform="matrix(2.5269502,0,0,2.5269502,-465.8333,-179.78253)"><stop
         id="stop5151"
         style="stop-color:#072B83"
         offset="0" /><stop
         id="stop5153"
         style="stop-color:#00679D"
         offset="1" /></linearGradient><linearGradient
       y2="118.8363"
       x2="229.3291"
       y1="145.09241"
       x1="202.8504"
       gradientUnits="userSpaceOnUse"
       id="SVGID_3_"
       gradientTransform="matrix(2.5269502,0,0,2.5269502,-465.8333,-179.78253)"
       xlink:href="#SVGID_4_"><stop
         id="stop5180"
         style="stop-color:#072B83"
         offset="0" /><stop
         id="stop5182"
         style="stop-color:#00679D"
         offset="1" /></linearGradient><radialGradient
       gradientUnits="userSpaceOnUse"
       gradientTransform="matrix(1.1915,0,0,0.4628,-46.2624,144.7044)"
       r="14.2161"
       cy="62.024101"
       cx="237.1386"
       id="SVGID_4_"><stop
         id="stop5187"
         style="stop-color:#7D7D7D"
         offset="5.000000e-03" /><stop
         id="stop5189"
         style="stop-color:#A1A1A1"
         offset="0.2045" /><stop
         id="stop5191"
         style="stop-color:#C0C0C0"
         offset="0.417" /><stop
         id="stop5193"
         style="stop-color:#D6D6D6"
         offset="0.6243" /><stop
         id="stop5195"
         style="stop-color:#E3E3E3"
         offset="0.8221" /><stop
         id="stop5197"
         style="stop-color:#E8E8E8"
         offset="1" /></radialGradient><radialGradient
       inkscape:collect="always"
       xlink:href="#linearGradient7281"
       id="radialGradient7287"
       cx="127.60413"
       cy="125.28988"
       fx="127.60413"
       fy="125.28988"
       r="120.8745"
       gradientTransform="matrix(1.2630792,-0.07757935,0.04255022,0.69741414,-33.884429,42.712206)"
       gradientUnits="userSpaceOnUse" /><filter
       style="color-interpolation-filters:sRGB"
       inkscape:label="Feather"
       id="filter7349"><feGaussianBlur
         stdDeviation="5.32526"
         result="blur"
         id="feGaussianBlur7351" /><feComposite
         in="SourceGraphic"
         in2="blur"
         operator="atop"
         result="composite1"
         id="feComposite7353" /><feComposite
         in2="composite1"
         operator="in"
         result="composite2"
         id="feComposite7355" /><feComposite
         in2="composite2"
         operator="in"
         result="composite3"
         id="feComposite7357" /></filter><radialGradient
       inkscape:collect="always"
       xlink:href="#linearGradient7630"
       id="radialGradient7636"
       cx="128.1785"
       cy="124.18439"
       fx="128.1785"
       fy="124.18439"
       r="184.01508"
       gradientTransform="matrix(0.80846107,0,0,0.5063987,29.03679,57.254681)"
       gradientUnits="userSpaceOnUse" /></defs><sodipodi:namedview
     pagecolor="#ffffff"
     bordercolor="#666666"
     borderopacity="1"
     objecttolerance="10"
     gridtolerance="10"
     guidetolerance="10"
     inkscape:pageopacity="0.27058824"
     inkscape:pageshadow="2"
     inkscape:window-width="3840"
     inkscape:window-height="2053"
     id="namedview5305"
     showgrid="false"
     fit-margin-top="0"
     fit-margin-left="0"
     fit-margin-right="0"
     fit-margin-bottom="0"
     borderlayer="true"
     inkscape:zoom="2.7845738"
     inkscape:cx="39.056195"
     inkscape:cy="-27.669175"
     inkscape:window-x="0"
     inkscape:window-y="0"
     inkscape:window-maximized="1"
     inkscape:current-layer="Layer_1"
     units="px" /><style
     type="text/css"
     id="style5137">
	.st0{opacity:0;fill:#FFFFFF;}
	.st1{fill:url(#SVGID_1_);}
	.st2{fill:url(#SVGID_2_);}
	.st3{fill:#FFFFFF;}
	.st4{fill:url(#SVGID_3_);}
	.st5{fill:url(#SVGID_4_);}
	.st6{fill:#231F20;}
	.st7{fill:none;}
</style><g
     inkscape:groupmode="layer"
     id="layer2"
     inkscape:label="effects"
     style="display:inline"
     transform="translate(187.2,-137.59997)" /><g
     inkscape:groupmode="layer"
     id="layer3"
     inkscape:label="logo"
     style="display:inline"
     transform="translate(187.2,-137.59997)" /><g
     id="g3483"
     transform="translate(-186.74313,-14.674712)"><path
       inkscape:connector-curvature="0"
       id="path7269"
       d="M -6.0830305,213.3265 -16.104909,194.28388 272.95929,26.956497 l 8.47384,20.562179 z"
       style="display:inline;fill:url(#radialGradient7287);fill-opacity:1;fill-rule:evenodd;stroke:url(#radialGradient7636);stroke-width:0.8017717px;stroke-linecap:butt;stroke-linejoin:miter;stroke-opacity:1"
       transform="translate(187.2,15.695592)" /><path
       transform="matrix(2.3015352,0,0,2.3302068,117.44506,-209.5635)"
       d="M 135.11026,151.4319 A 52.025219,51.248722 0 0 1 83.265739,202.68031 52.025219,51.248722 0 0 1 31.061081,151.78789 52.025219,51.248722 0 0 1 82.542972,100.18596 52.025219,51.248722 0 0 1 135.10524,150.71993"
       sodipodi:open="true"
       sodipodi:end="6.2692925"
       sodipodi:start="0"
       sodipodi:ry="51.248722"
       sodipodi:rx="52.025219"
       sodipodi:cy="151.4319"
       sodipodi:cx="83.085045"
       sodipodi:type="arc"
       id="path7289"
       style="display:inline;fill:#ffffff;fill-opacity:1;stroke:none;stroke-opacity:1;filter:url(#filter7349)" /><path
       class="st1"
       d="m 82.514893,102.7305 c 14.656312,0 27.543757,6.31738 36.388087,16.42518 L 242.47084,47.895683 204.56659,62.804689 C 185.36177,38.545967 155.54375,22.878876 122.18801,22.878876 64.068157,22.878876 17.066883,69.88015 17.066883,128 c 0,13.39284 2.52695,26.28029 7.075461,37.90426 L 7.2117774,183.8456 36.777095,166.66234 c -1.768865,-4.8012 -2.52695,-10.1078 -2.52695,-15.66709 C 33.99745,124.46227 55.729221,102.7305 82.514893,102.7305 Z"
       id="path5148"
       style="display:inline;fill:url(#SVGID_1_);stroke:#a2a2a2;stroke-width:1.5;stroke-miterlimit:4;stroke-dasharray:none;stroke-opacity:0.50196078"
       inkscape:connector-curvature="0"
       transform="translate(187.2,15.695592)" /><path
       class="st2"
       d="M 248.78822,66.595114 128.75808,136.08624 c 1.51617,4.80121 2.52695,9.85511 2.52695,15.16171 0,26.78567 -21.73177,48.51744 -48.517442,48.51744 -14.403616,0 -27.291062,-6.31738 -36.135387,-16.17248 l -33.103048,18.95213 29.312622,-5.81199 c 19.204822,22.23716 47.759359,36.38808 79.598935,36.38808 58.11985,0 105.12112,-47.00127 105.12112,-105.12113 0,-12.63475 -2.27425,-24.76411 -6.31737,-35.882688 l 27.54376,-25.522198 z"
       id="path5155"
       style="display:inline;fill:url(#SVGID_2_);stroke:#a2a2a2;stroke-width:1.5;stroke-miterlimit:4;stroke-dasharray:none;stroke-opacity:0.50196078"
       inkscape:connector-curvature="0"
       transform="translate(187.2,15.695592)" /><path
       class="st4"
       d="m 120.67184,151.24795 c 0,20.97368 -17.18326,38.15694 -38.156947,38.15694 -20.973686,0 -38.156948,-17.18326 -38.156948,-38.15694 0,-20.97369 17.183262,-38.15695 38.156948,-38.15695 21.226387,0 38.156947,17.18326 38.156947,38.15695 z"
       id="path5184"
       style="display:inline;fill:url(#SVGID_3_);fill-opacity:1;stroke:#ffffff;stroke-opacity:1"
       inkscape:connector-curvature="0"
       transform="translate(187.2,15.695592)" /><g
       id="g7377"
       style="display:inline"
       transform="translate(187.2,15.695592)"><path
         style="fill:#ffffff"
         inkscape:connector-curvature="0"
         id="path5157"
         d="m 131.03234,45.874123 c 0,3.285035 -2.52695,5.811985 -5.81199,5.811985 -3.28503,0 -5.81198,-2.52695 -5.81198,-5.811985 0,-3.285035 2.52695,-5.811986 5.81198,-5.811986 3.28504,0 5.81199,2.526951 5.81199,5.811986 z"
         class="st3" /><path
         style="fill:#ffffff"
         inkscape:connector-curvature="0"
         id="path5159"
         d="m 134.82276,88.074191 c 0,3.03234 -2.52695,5.811986 -5.81198,5.811986 -3.03234,0 -5.81199,-2.526951 -5.81199,-5.811986 0,-3.285035 2.52695,-5.811985 5.81199,-5.811985 3.28503,0 5.81198,2.52695 5.81198,5.811985 z"
         class="st3" /><path
         style="fill:#ffffff"
         inkscape:connector-curvature="0"
         id="path5161"
         d="m 176.77014,58.003484 c 0,3.03234 -2.52695,5.306595 -5.3066,5.306595 -3.03234,0 -5.30659,-2.52695 -5.30659,-5.306595 0,-3.03234 2.52695,-5.306596 5.30659,-5.306596 2.77965,0 5.3066,2.274256 5.3066,5.306596 z"
         class="st3" /><path
         style="fill:#ffffff"
         inkscape:connector-curvature="0"
         id="path5163"
         d="m 88.832269,73.165185 c 0,3.285035 -2.779645,6.06468 -6.064681,6.06468 -3.285035,0 -6.06468,-2.779645 -6.06468,-6.06468 0,-3.285035 2.779645,-6.06468 6.06468,-6.06468 3.285036,0 6.064681,2.779645 6.064681,6.06468 z"
         class="st3" /><path
         style="fill:#ffffff"
         inkscape:connector-curvature="0"
         id="path5173"
         d="m 45.874115,100.20355 c 0,3.03234 -2.52695,5.55929 -5.55929,5.55929 -3.03234,0 -5.55929,-2.52695 -5.55929,-5.55929 0,-3.032338 2.52695,-5.559288 5.55929,-5.559288 3.03234,0 5.55929,2.52695 5.55929,5.559288 z"
         class="st3" /><rect
         style="fill:#ffffff"
         id="rect5219"
         height="40.430473"
         width="2.0215235"
         class="st3"
         transform="matrix(0.50070905,-0.86561565,0.86561565,0.50070905,0,0)"
         y="68.668839"
         x="-22.30056" /><rect
         style="fill:#ffffff"
         id="rect5221"
         height="2.0216417"
         width="47.00317"
         class="st3"
         transform="matrix(0.19919197,-0.97996049,0.97996049,0.19919197,0,0)"
         y="95.562897"
         x="-54.989979" /><rect
         style="fill:#ffffff"
         id="rect5223"
         height="2.0216098"
         width="51.04565"
         class="st3"
         transform="matrix(0.84887914,-0.52858699,0.52858699,0.84887914,0,0)"
         y="105.48879"
         x="-18.633629" /><polygon
         style="fill:#ffffff"
         id="polygon5225"
         points="190.7,126.9 200,110.6 200.6,111 191.4,127.3 "
         class="st3"
         transform="matrix(2.5269502,0,0,2.5269502,-465.8333,-179.78253)" /><rect
         style="fill:#ffffff"
         id="rect5227"
         height="2.0215509"
         width="89.706322"
         class="st3"
         transform="matrix(0.99080459,-0.13530063,0.13530063,0.99080459,0,0)"
         y="103.74675"
         x="26.291876" /><rect
         style="fill:#ffffff"
         id="rect5229"
         height="47.000137"
         width="1.7688223"
         class="st3"
         transform="matrix(0.31700768,-0.94842297,0.94842297,0.31700768,0,0)"
         y="102.49054"
         x="-43.867779" /><rect
         style="fill:#ffffff"
         id="rect5231"
         height="2.0215337"
         width="52.559872"
         class="st3"
         transform="matrix(0.82781082,-0.56100734,0.56100734,0.82781082,0,0)"
         y="143.98047"
         x="56.717754" /><rect
         style="fill:#ffffff"
         id="rect5233"
         height="1.7688512"
         width="48.011673"
         class="st3"
         transform="matrix(0.17590139,-0.98440779,0.98440779,0.17590139,0,0)"
         y="56.443253"
         x="-91.430573" /><rect
         style="fill:#ffffff"
         id="rect5235"
         height="1.7688411"
         width="49.527554"
         class="st3"
         transform="matrix(0.83621129,-0.5484074,0.5484074,0.83621129,0,0)"
         y="105.98478"
         x="29.730862" /><rect
         style="fill:#ffffff"
         id="rect5237"
         height="37.144539"
         width="2.0214715"
         class="st3"
         transform="matrix(0.50582216,-0.86263778,0.86263778,0.50582216,0,0)"
         y="93.869705"
         x="22.599037" /><rect
         style="fill:#ffffff"
         id="rect5239"
         height="2.0215094"
         width="51.548489"
         class="st3"
         transform="matrix(0.98772483,-0.15620393,0.15620393,0.98772483,0,0)"
         y="64.0681"
         x="116.31158" /><rect
         style="fill:#ffffff"
         id="rect5241"
         height="42.198769"
         width="2.021498"
         class="st3"
         transform="matrix(0.99713072,-0.07569896,0.07569896,0.99713072,0,0)"
         y="55.268158"
         x="120.2717" /><rect
         style="fill:#ffffff"
         id="rect5243"
         height="48.51778"
         width="1.7688773"
         class="st3"
         transform="matrix(0.2607982,-0.96539334,0.96539334,0.2607982,0,0)"
         y="132.65376"
         x="-12.764871" /><rect
         style="fill:#ffffff"
         id="rect5245"
         height="1.7689378"
         width="21.227253"
         class="st3"
         transform="matrix(0.20309165,-0.97915973,0.97915973,0.20309165,0,0)"
         y="179.39565"
         x="-22.503397" /><polygon
         style="fill:none"
         id="polygon5277"
         points="235.9,106.7 239.6,113.7 245.5,110.3 "
         class="st7"
         transform="matrix(2.5269502,0,0,2.5269502,-465.8333,-179.78253)" /><polygon
         style="fill:#ffffff"
         id="polygon5283"
         points="253.7,86.2 258.4,102.8 259.1,102.4 254.4,86 "
         class="st3"
         transform="matrix(2.5269502,0,0,2.5269502,-465.8333,-179.78253)" /><polygon
         style="fill:#ffffff"
         id="polygon5285"
         points="239.6,113.7 235.9,106.7 235,106.4 235.1,106 234.8,106.2 238.9,114.1 "
         class="st3"
         transform="matrix(2.5269502,0,0,2.5269502,-465.8333,-179.78253)" /><polygon
         style="fill:#ffffff"
         id="polygon5291"
         points="235.5,105.8 235.9,106.7 245.5,110.3 246.3,109.8 235.3,105.6 235.1,106 "
         class="st3"
         transform="matrix(2.5269502,0,0,2.5269502,-465.8333,-179.78253)" /><polygon
         style="fill:#ffffff"
         id="polygon5295"
         points="235.5,105.8 235.1,106 235,106.4 235.9,106.7 "
         class="st3"
         transform="matrix(2.5269502,0,0,2.5269502,-465.8333,-179.78253)" /><polygon
         style="fill:#ffffff"
         id="polygon5299"
         points="234.8,106 234.6,116.6 235.4,116.1 235.5,106 "
         class="st3"
         transform="matrix(2.5269502,0,0,2.5269502,-465.8333,-179.78253)" /></g><path
       class="st3"
       d="m 202.54503,113.091 c 0,3.03234 -2.27426,5.30659 -5.3066,5.30659 -3.03234,0 -5.30659,-2.27425 -5.30659,-5.30659 0,-3.03234 2.27425,-5.3066 5.30659,-5.3066 3.03234,0 5.3066,2.52695 5.3066,5.3066 z"
       id="path5165"
       inkscape:connector-curvature="0"
       style="display:inline;fill:#ffffff"
       transform="translate(187.2,15.695592)" /><circle
       class="st3"
       cx="162.6192"
       cy="156.04913"
       r="6.5700703"
       id="circle5167"
       style="display:inline;fill:#ffffff"
       transform="translate(187.2,15.695592)" /><path
       class="st3"
       d="m 207.59893,158.5761 c 0,2.77965 -2.27426,5.0539 -5.0539,5.0539 -2.77965,0 -5.0539,-2.27425 -5.0539,-5.0539 0,-2.77964 2.27425,-5.0539 5.0539,-5.0539 2.77964,0 5.0539,2.27426 5.0539,5.0539 z"
       id="path5169"
       inkscape:connector-curvature="0"
       style="display:inline;fill:#ffffff"
       transform="translate(187.2,15.695592)" /><circle
       class="st3"
       cx="176.51743"
       cy="194.45882"
       r="5.3065953"
       id="circle5171"
       style="display:inline;fill:#ffffff"
       transform="translate(187.2,15.695592)" /><path
       class="st3"
       d="m 132.8012,206.58816 c 0,3.53773 -2.77964,6.06468 -6.06468,6.06468 -3.53773,0 -6.06468,-2.77965 -6.06468,-6.06468 0,-3.53773 2.77965,-6.06468 6.06468,-6.06468 3.28504,0 6.06468,2.77964 6.06468,6.06468 z"
       id="path5175"
       inkscape:connector-curvature="0"
       style="display:inline;fill:#ffffff"
       transform="translate(187.2,15.695592)" /><path
       class="st3"
       d="m 89.843049,205.83007 c 0,3.53773 -2.779645,6.06468 -6.064681,6.06468 -3.53773,0 -6.06468,-2.77964 -6.06468,-6.06468 0,-3.53773 2.779645,-6.06468 6.06468,-6.06468 3.285036,0 6.064681,2.77965 6.064681,6.06468 z"
       id="path5177"
       inkscape:connector-curvature="0"
       style="display:inline;fill:#ffffff"
       transform="translate(187.2,15.695592)" /><rect
       x="-19.104757"
       y="225.87668"
       transform="matrix(0.62833477,-0.77794306,0.77794306,0.62833477,187.2,15.695592)"
       class="st3"
       width="55.084461"
       height="2.0214484"
       id="rect5247"
       style="display:inline;fill:#ffffff" /><rect
       x="105.84226"
       y="200.92328"
       transform="matrix(0.9496587,-0.31328638,0.31328638,0.9496587,187.2,15.695592)"
       class="st3"
       width="2.0216482"
       height="40.180252"
       id="rect5249"
       style="display:inline;fill:#ffffff" /><rect
       x="78.884895"
       y="228.07986"
       transform="matrix(0.9763468,-0.21621036,0.21621036,0.9763468,187.2,15.695592)"
       class="st3"
       width="51.54731"
       height="2.0214634"
       id="rect5251"
       style="display:inline;fill:#ffffff" /><rect
       x="-101.03858"
       y="231.94765"
       transform="matrix(0.67386144,-0.73885774,0.73885774,0.67386144,187.2,15.695592)"
       class="st3"
       width="33.863068"
       height="2.0216758"
       id="rect5253"
       style="display:inline;fill:#ffffff" /><rect
       x="-59.040043"
       y="213.87968"
       transform="matrix(0.79448269,-0.6072868,0.6072868,0.79448269,187.2,15.695592)"
       class="st3"
       width="1.7689037"
       height="33.356468"
       id="rect5255"
       style="display:inline;fill:#ffffff" /><rect
       x="-203.21036"
       y="90.439377"
       transform="matrix(0.03347485,-0.99943956,0.99943956,0.03347485,187.2,15.695592)"
       class="st3"
       width="2.0214803"
       height="42.956451"
       id="rect5257"
       style="display:inline;fill:#ffffff" /><rect
       x="-170.96164"
       y="172.93431"
       transform="matrix(0.24140602,-0.9704242,0.9704242,0.24140602,187.2,15.695592)"
       class="st3"
       width="2.0215096"
       height="51.548496"
       id="rect5259"
       style="display:inline;fill:#ffffff" /><rect
       x="-212.26656"
       y="182.64365"
       transform="matrix(0.03384817,-0.99942699,0.99942699,0.03384817,187.2,15.695592)"
       class="st3"
       width="22.994625"
       height="2.0215056"
       id="rect5261"
       style="display:inline;fill:#ffffff" /><rect
       x="84.340195"
       y="248.75793"
       transform="matrix(0.91712093,-0.39860908,0.39860908,0.91712093,187.2,15.695592)"
       class="st3"
       width="40.430279"
       height="1.7688247"
       id="rect5263"
       style="display:inline;fill:#ffffff" /><rect
       x="91.231384"
       y="240.7858"
       transform="matrix(0.85905945,-0.51187583,0.51187583,0.85905945,187.2,15.695592)"
       class="st3"
       width="2.0216556"
       height="22.743626"
       id="rect5265"
       style="display:inline;fill:#ffffff" /><rect
       x="-147.72844"
       y="173.93161"
       transform="matrix(0.06209911,-0.99806999,0.99806999,0.06209911,187.2,15.695592)"
       class="st3"
       width="2.021621"
       height="38.158096"
       id="rect5267"
       style="display:inline;fill:#ffffff" /><rect
       x="102.37289"
       y="235.59947"
       transform="matrix(0.88041329,-0.47420718,0.47420718,0.88041329,187.2,15.695592)"
       class="st3"
       width="26.279882"
       height="1.7688384"
       id="rect5269"
       style="display:inline;fill:#ffffff" /><rect
       x="81.33094"
       y="214.33432"
       transform="matrix(0.77633113,-0.63032529,0.63032529,0.77633113,187.2,15.695592)"
       class="st3"
       width="1.7687942"
       height="42.19838"
       id="rect5271"
       style="display:inline;fill:#ffffff" /><rect
       x="188.99693"
       y="129.12312"
       transform="matrix(0.99723819,-0.07426966,0.07426966,0.99723819,187.2,15.695592)"
       class="st3"
       width="2.0214827"
       height="45.230675"
       id="rect5273"
       style="display:inline;fill:#ffffff" /><rect
       x="-21.230026"
       y="227.62242"
       transform="matrix(0.41671669,-0.90903641,0.90903641,0.41671669,187.2,15.695592)"
       class="st3"
       width="28.806076"
       height="1.7687943"
       id="rect5275"
       style="display:inline;fill:#ffffff" /><polygon
       transform="matrix(2.5269502,0,0,2.5269502,-278.6333,-164.08694)"
       class="st7"
       points="260.6,110.3 255.5,113.3 262.2,115.7 "
       id="polygon5279"
       style="display:inline;fill:none" /><polygon
       transform="matrix(2.5269502,0,0,2.5269502,-278.6333,-164.08694)"
       class="st3"
       points="263,116.1 261.3,109.9 260.6,110.3 262.2,115.7 "
       id="polygon5281"
       style="display:inline;fill:#ffffff" /><polygon
       transform="matrix(2.5269502,0,0,2.5269502,-278.6333,-164.08694)"
       class="st3"
       points="249.7,133.3 243.1,120.5 242.4,120.8 249.1,133.6 "
       id="polygon5287"
       style="display:inline;fill:#ffffff" /><polygon
       transform="matrix(2.5269502,0,0,2.5269502,-278.6333,-164.08694)"
       class="st3"
       points="263,116.8 263.2,116.1 263,116.1 263.1,116.3 262.4,116.5 262.2,115.7 255.5,113.3 254.7,113.7 "
       id="polygon5289"
       style="display:inline;fill:#ffffff" /><polygon
       transform="matrix(2.5269502,0,0,2.5269502,-278.6333,-164.08694)"
       class="st3"
       points="263.1,116.3 263,116.1 262.2,115.7 262.4,116.5 "
       id="polygon5293"
       style="display:inline;fill:#ffffff" /><polygon
       transform="matrix(2.5269502,0,0,2.5269502,-278.6333,-164.08694)"
       class="st3"
       points="234.9,152.9 235.1,137.6 234.3,139.3 234.1,152.9 "
       id="polygon5297"
       style="display:inline;fill:#ffffff" /><path
       style="display:inline;fill:#ffffff"
       inkscape:connector-curvature="0"
       id="path5303"
       d="m 69.880142,123.45149 10.865886,0 0,39.67312 24.764112,0 0,9.85511 -35.629998,0 0,-49.52823 z"
       class="st3"
       transform="translate(187.2,15.695592)" /><rect
       style="opacity:0;fill:#ffffff"
       y="108.29557"
       x="0"
       id="rect5139"
       height="300"
       width="470"
       class="st0" /></g></svg>