<?xml version="1.0" encoding="UTF-8" standalone="no"?>
<!-- Generator: Adobe Illustrator 22.1.0, SVG Export Plug-In . SVG Version: 6.00 Build 0)  -->

<svg
   xmlns:dc="http://purl.org/dc/elements/1.1/"
   xmlns:cc="http://creativecommons.org/ns#"
   xmlns:rdf="http://www.w3.org/1999/02/22-rdf-syntax-ns#"
   xmlns:svg="http://www.w3.org/2000/svg"
   xmlns="http://www.w3.org/2000/svg"
   xmlns:sodipodi="http://sodipodi.sourceforge.net/DTD/sodipodi-0.dtd"
   xmlns:inkscape="http://www.inkscape.org/namespaces/inkscape"
   version="1.1"
   id="Layer_1"
   x="0px"
   y="0px"
   viewBox="0 0 468 60"
   xml:space="preserve"
   inkscape:version="0.91 r13725"
   sodipodi:docname="xln_with_text_banner.svg"
   width="468"
   height="60"
   inkscape:export-filename="/home/esavard/Projets/lunarium/src/qt/res/src/xln_with_text_banner.svg.png"
   inkscape:export-xdpi="90"
   inkscape:export-ydpi="90"><metadata
     id="metadata175"><rdf:RDF><cc:Work
         rdf:about=""><dc:format>image/svg+xml</dc:format><dc:type
           rdf:resource="http://purl.org/dc/dcmitype/StillImage" /><dc:title /></cc:Work></rdf:RDF></metadata><defs
     id="defs173"><linearGradient
       y2="112.1036"
       x2="280.33591"
       y1="112.1036"
       x1="187.1787"
       gradientUnits="userSpaceOnUse"
       id="SVGID_1_"
       gradientTransform="matrix(0.54036009,0,0,0.54036009,-90.564331,-37.285897)"><stop
         id="stop10"
         style="stop-color:#072B83"
         offset="0" /><stop
         id="stop12"
         style="stop-color:#00679D"
         offset="1" /></linearGradient><linearGradient
       y2="130.4688"
       x2="282.82129"
       y1="130.4688"
       x1="189.6636"
       gradientUnits="userSpaceOnUse"
       id="SVGID_2_"
       gradientTransform="matrix(0.54036009,0,0,0.54036009,-90.564331,-37.285897)"><stop
         id="stop17"
         style="stop-color:#072B83"
         offset="0" /><stop
         id="stop19"
         style="stop-color:#00679D"
         offset="1" /></linearGradient><linearGradient
       y2="118.8363"
       x2="229.3291"
       y1="145.09241"
       x1="202.8504"
       gradientUnits="userSpaceOnUse"
       id="SVGID_3_"
       gradientTransform="matrix(0.54036009,0,0,0.54036009,-90.564331,-37.285897)"><stop
         id="stop46"
         style="stop-color:#072B83"
         offset="0" /><stop
         id="stop48"
         style="stop-color:#00679D"
         offset="1" /></linearGradient><radialGradient
       gradientUnits="userSpaceOnUse"
       gradientTransform="matrix(0.64383905,0,0,0.25007865,-115.56269,40.906586)"
       r="14.2161"
       cy="62.024101"
       cx="237.1386"
       id="SVGID_4_"><stop
         id="stop53"
         style="stop-color:#7D7D7D"
         offset="5.000000e-03" /><stop
         id="stop55"
         style="stop-color:#A1A1A1"
         offset="0.2045" /><stop
         id="stop57"
         style="stop-color:#C0C0C0"
         offset="0.417" /><stop
         id="stop59"
         style="stop-color:#D6D6D6"
         offset="0.6243" /><stop
         id="stop61"
         style="stop-color:#E3E3E3"
         offset="0.8221" /><stop
         id="stop63"
         style="stop-color:#E8E8E8"
         offset="1" /></radialGradient></defs><sodipodi:namedview
     pagecolor="#ffffff"
     bordercolor="#666666"
     borderopacity="1"
     objecttolerance="10"
     gridtolerance="10"
     guidetolerance="10"
     inkscape:pageopacity="1"
     inkscape:pageshadow="2"
     inkscape:window-width="1815"
     inkscape:window-height="1027"
     id="namedview171"
     showgrid="false"
     borderlayer="true"
     inkscape:zoom="2.6538462"
     inkscape:cx="160.71015"
     inkscape:cy="-15.217391"
     inkscape:window-x="0"
     inkscape:window-y="0"
     inkscape:window-maximized="0"
     inkscape:current-layer="Layer_1" /><style
     type="text/css"
     id="style3">
	.st0{opacity:0;fill:#FFFFFF;}
	.st1{fill:url(#SVGID_1_);}
	.st2{fill:url(#SVGID_2_);}
	.st3{fill:#FFFFFF;}
	.st4{fill:url(#SVGID_3_);}
	.st5{fill:url(#SVGID_4_);}
	.st6{fill:#231F20;}
	.st7{fill:none;}
</style><rect
     class="st0"
     width="470"
     height="300"
     id="rect5"
     x="0"
     y="-240"
     style="opacity:0;fill:#ffffff" /><g
     id="g67"
     transform="matrix(1.1795383,0,0,1.1795383,-6.0175952,-207.67697)"
     style="fill:#034f93;fill-opacity:1"><path
       style="fill:#034f93;fill-opacity:1"
       inkscape:connector-curvature="0"
       id="path69"
       d="m 118.6,214.1 14.4,0 0,5.1 -19.6,0 0,-35.4 5.2,0 0,30.3 z"
       class="st6" /><path
       style="fill:#034f93;fill-opacity:1"
       inkscape:connector-curvature="0"
       id="path71"
       d="m 159.3,183.8 5.1,0 0,23.6 c 0,1.6 -0.3,3.2 -0.9,4.6 -0.6,1.4 -1.5,2.6 -2.6,3.7 -1.1,1 -2.4,1.9 -3.8,2.5 -1.4,0.6 -3,0.9 -4.7,0.9 -1.6,0 -3.2,-0.3 -4.6,-0.9 -1.4,-0.6 -2.7,-1.4 -3.8,-2.5 -1.1,-1 -1.9,-2.3 -2.5,-3.7 -0.6,-1.4 -0.9,-2.9 -0.9,-4.6 l 0,-23.6 5.1,0 0,23.6 c 0,0.9 0.2,1.8 0.5,2.6 0.4,0.8 0.8,1.5 1.4,2.2 0.6,0.6 1.3,1.1 2.2,1.5 0.8,0.4 1.7,0.5 2.6,0.5 1,0 1.9,-0.2 2.7,-0.5 0.8,-0.4 1.6,-0.8 2.2,-1.5 0.6,-0.6 1.1,-1.3 1.5,-2.2 0.4,-0.8 0.5,-1.7 0.5,-2.6 l 0,-23.6 z"
       class="st6" /><path
       style="fill:#034f93;fill-opacity:1"
       inkscape:connector-curvature="0"
       id="path73"
       d="m 176.9,219.2 -4.9,0 0,-36 22.8,27.3 0,-26.7 4.9,0 0,35.4 -4.7,0 -18.1,-22.3 0,22.3 z"
       class="st6" /><path
       style="fill:#034f93;fill-opacity:1"
       inkscape:connector-curvature="0"
       id="path75"
       d="m 207.3,219 14.4,-35.3 14.4,35.3 -5.3,0 -1.1,-2.8 -16.1,0 -1.1,2.8 -5.2,0 z m 8.1,-7.3 12.6,0 -6.3,-16.2 -6.3,16.2 z"
       class="st6" /><path
       style="fill:#034f93;fill-opacity:1"
       inkscape:connector-curvature="0"
       id="path77"
       d="m 268,199.8 c -0.5,1.4 -1.1,2.7 -2,3.9 -0.9,1.2 -2,2.1 -3.3,2.9 -0.1,0.1 -0.1,0.1 -0.2,0.1 -0.1,0 -0.2,0.1 -0.2,0.1 l 6.2,12.2 -5.4,0 -5.4,-10.6 c -0.4,0.1 -0.8,0.1 -1.2,0.1 -0.4,0 -0.8,0 -1.3,0 l -6.3,0 0,10.5 -5.2,0 0,-35.4 11.5,0 c 1.4,0 2.8,0.2 4.1,0.6 1.3,0.4 2.4,0.9 3.5,1.5 2.6,1.6 4.4,3.9 5.3,6.9 0,0.2 0.1,0.3 0.1,0.4 0,0.1 0.1,0.3 0.1,0.4 l 0,0.2 c 0.1,0.2 0.1,0.3 0.1,0.5 0,0.2 0,0.4 0.1,0.6 l 0,0 c 0,0.2 0,0.4 0,0.6 0,0.2 0,0.4 0,0.6 l 0,0 0,0.1 c 0,0.2 0,0.4 0,0.6 0,0.2 0,0.4 0,0.6 l 0,0.1 c 0,0.2 -0.1,0.4 -0.1,0.6 0,0.2 -0.1,0.4 -0.1,0.6 l 0,0.2 c -0.2,0.5 -0.2,0.8 -0.3,1.1 z m -12.2,4.4 c 1.1,0 2,-0.2 2.9,-0.7 0.9,-0.5 1.6,-1 2.3,-1.8 0.6,-0.7 1.2,-1.6 1.5,-2.5 0.4,-0.9 0.6,-1.9 0.6,-3 0,-1 -0.2,-2 -0.6,-2.9 -0.4,-1 -0.9,-1.8 -1.5,-2.5 -0.6,-0.7 -1.4,-1.3 -2.3,-1.8 -0.9,-0.5 -1.9,-0.7 -2.9,-0.7 l -6.9,0 0,15.9 6.9,0 z"
       class="st6" /><path
       style="fill:#034f93;fill-opacity:1"
       inkscape:connector-curvature="0"
       id="path79"
       d="m 276.1,183.8 5.2,0 0,35.3 -5.2,0 0,-35.3 z"
       class="st6" /><path
       style="fill:#034f93;fill-opacity:1"
       inkscape:connector-curvature="0"
       id="path81"
       d="m 307.6,183.8 5.1,0 0,23.6 c 0,1.6 -0.3,3.2 -0.9,4.6 -0.6,1.4 -1.5,2.6 -2.6,3.7 -1.1,1 -2.4,1.9 -3.8,2.5 -1.4,0.6 -3,0.9 -4.7,0.9 -1.6,0 -3.2,-0.3 -4.6,-0.9 -1.4,-0.6 -2.7,-1.4 -3.8,-2.5 -1.1,-1 -1.9,-2.3 -2.5,-3.7 -0.6,-1.4 -0.9,-2.9 -0.9,-4.6 l 0,-23.6 5.1,0 0,23.6 c 0,0.9 0.2,1.8 0.5,2.6 0.4,0.8 0.8,1.5 1.4,2.2 0.6,0.6 1.3,1.1 2.2,1.5 0.8,0.4 1.7,0.5 2.6,0.5 1,0 1.9,-0.2 2.7,-0.5 0.8,-0.4 1.6,-0.8 2.2,-1.5 0.6,-0.6 1.1,-1.3 1.5,-2.2 0.4,-0.8 0.5,-1.7 0.5,-2.6 l 0,-23.6 z"
       class="st6" /><path
       style="fill:#034f93;fill-opacity:1"
       inkscape:connector-curvature="0"
       id="path83"
       d="m 350,183.8 6.6,35.4 -5.3,0 -3.4,-19.6 -9.5,20.2 -9.4,-20.2 -3.4,19.6 -5.3,0 6.6,-35.4 11.6,24.3 11.5,-24.3 z"
       class="st6" /></g><g
     id="g3704"
     transform="matrix(1.1025,0,0,1.1025,6.323337,-1.4542832)"><path
       class="st1"
       d="m 26.693809,23.126361 c 3.134088,0 5.889925,1.3509 7.781185,3.512341 L 60.898602,11.400547 52.793201,14.588672 C 48.686464,9.4012148 42.310215,6.0509822 35.177462,6.0509822 c -12.428282,0 -22.47898,10.0506978 -22.47898,22.4789798 0,2.863908 0.54036,5.619745 1.513008,8.105401 l -3.620412,3.836557 6.322213,-3.674449 c -0.378252,-1.026684 -0.54036,-2.16144 -0.54036,-3.350232 -0.05404,-5.673781 4.593061,-10.320878 10.320878,-10.320878 z"
       id="path14"
       style="fill:url(#SVGID_1_)"
       inkscape:connector-curvature="0" /><path
       class="st2"
       d="M 62.249502,15.399212 36.582398,30.259114 c 0.324216,1.026684 0.54036,2.107405 0.54036,3.242161 0,5.727817 -4.647097,10.374914 -10.374913,10.374914 -3.080053,0 -5.835889,-1.350901 -7.72715,-3.458305 l -7.078717,4.052701 6.268177,-1.242829 c 4.106737,4.755169 10.212806,7.781186 17.021343,7.781186 12.428282,0 22.47898,-10.050698 22.47898,-22.47898 0,-2.7018 -0.486324,-5.295529 -1.350901,-7.673113 l 5.889925,-5.457637 z"
       id="path21"
       style="fill:url(#SVGID_2_)"
       inkscape:connector-curvature="0" /><path
       class="st3"
       d="m 37.068722,10.968259 c 0,0.702468 -0.54036,1.242828 -1.242828,1.242828 -0.702468,0 -1.242828,-0.54036 -1.242828,-1.242828 0,-0.702468 0.54036,-1.2428282 1.242828,-1.2428282 0.702468,0 1.242828,0.5403602 1.242828,1.2428282 z"
       id="path23"
       inkscape:connector-curvature="0"
       style="fill:#ffffff" /><path
       class="st3"
       d="m 37.879262,19.992273 c 0,0.648432 -0.54036,1.242828 -1.242828,1.242828 -0.648432,0 -1.242828,-0.54036 -1.242828,-1.242828 0,-0.702469 0.54036,-1.242829 1.242828,-1.242829 0.702468,0 1.242828,0.54036 1.242828,1.242829 z"
       id="path25"
       inkscape:connector-curvature="0"
       style="fill:#ffffff" /><path
       class="st3"
       d="m 46.84924,13.561987 c 0,0.648433 -0.54036,1.134757 -1.134756,1.134757 -0.648432,0 -1.134756,-0.54036 -1.134756,-1.134757 0,-0.648432 0.54036,-1.134756 1.134756,-1.134756 0.594396,0 1.134756,0.486324 1.134756,1.134756 z"
       id="path27"
       inkscape:connector-curvature="0"
       style="fill:#ffffff" /><path
       class="st3"
       d="m 28.044709,16.804148 c 0,0.702468 -0.594396,1.296864 -1.296864,1.296864 -0.702469,0 -1.296865,-0.594396 -1.296865,-1.296864 0,-0.702468 0.594396,-1.296864 1.296865,-1.296864 0.702468,0 1.296864,0.594396 1.296864,1.296864 z"
       id="path29"
       inkscape:connector-curvature="0"
       style="fill:#ffffff" /><path
       class="st3"
       d="m 52.360913,25.341837 c 0,0.648433 -0.486324,1.134757 -1.134756,1.134757 -0.648432,0 -1.134757,-0.486324 -1.134757,-1.134757 0,-0.648432 0.486325,-1.134756 1.134757,-1.134756 0.648432,0 1.134756,0.54036 1.134756,1.134756 z"
       id="path31"
       inkscape:connector-curvature="0"
       style="fill:#ffffff" /><circle
       class="st3"
       cx="43.823223"
       cy="34.527954"
       r="1.4049362"
       id="circle33"
       style="fill:#ffffff" /><path
       class="st3"
       d="m 53.441633,35.068319 c 0,0.594396 -0.486324,1.08072 -1.08072,1.08072 -0.594396,0 -1.08072,-0.486324 -1.08072,-1.08072 0,-0.594396 0.486324,-1.08072 1.08072,-1.08072 0.594396,0 1.08072,0.486324 1.08072,1.08072 z"
       id="path35"
       inkscape:connector-curvature="0"
       style="fill:#ffffff" /><circle
       class="st3"
       cx="46.7952"
       cy="42.741436"
       r="1.1347561"
       id="circle37"
       style="fill:#ffffff" /><path
       class="st3"
       d="m 18.858587,22.586001 c 0,0.648432 -0.54036,1.188792 -1.188792,1.188792 -0.648432,0 -1.188792,-0.54036 -1.188792,-1.188792 0,-0.648432 0.54036,-1.188792 1.188792,-1.188792 0.648432,0 1.188792,0.54036 1.188792,1.188792 z"
       id="path39"
       inkscape:connector-curvature="0"
       style="fill:#ffffff" /><path
       class="st3"
       d="m 37.446974,45.335161 c 0,0.756504 -0.594396,1.296864 -1.296864,1.296864 -0.756504,0 -1.296864,-0.594396 -1.296864,-1.296864 0,-0.756504 0.594396,-1.296864 1.296864,-1.296864 0.702468,0 1.296864,0.594396 1.296864,1.296864 z"
       id="path41"
       inkscape:connector-curvature="0"
       style="fill:#ffffff" /><path
       class="st3"
       d="m 28.260853,45.173053 c 0,0.756504 -0.594396,1.296864 -1.296864,1.296864 -0.756505,0 -1.296865,-0.594396 -1.296865,-1.296864 0,-0.756504 0.594396,-1.296864 1.296865,-1.296864 0.702468,0 1.296864,0.594396 1.296864,1.296864 z"
       id="path43"
       inkscape:connector-curvature="0"
       style="fill:#ffffff" /><path
       class="st4"
       d="m 34.853246,33.501275 c 0,4.484989 -3.674449,8.159437 -8.159437,8.159437 -4.484989,0 -8.159438,-3.674448 -8.159438,-8.159437 0,-4.484989 3.674449,-8.159438 8.159438,-8.159438 4.539024,0 8.159437,3.674449 8.159437,8.159438 z"
       id="path50"
       style="fill:url(#SVGID_3_)"
       inkscape:connector-curvature="0" /><rect
       x="-1.2407461"
       y="23.097061"
       transform="matrix(0.50070905,-0.86561564,0.86561564,0.50070905,0,0)"
       class="st3"
       width="0.43228024"
       height="8.6456051"
       id="rect85"
       style="fill:#ffffff" /><rect
       x="-11.091901"
       y="29.533422"
       transform="matrix(0.19919197,-0.97996049,0.97996049,0.19919197,0,0)"
       class="st3"
       width="10.051103"
       height="0.43230551"
       id="rect87"
       style="fill:#ffffff" /><rect
       x="3.0844312"
       y="28.324244"
       transform="matrix(0.84887913,-0.52858701,0.52858701,0.84887913,0,0)"
       class="st3"
       width="10.915543"
       height="0.43229869"
       id="rect89"
       style="fill:#ffffff" /><polygon
       transform="matrix(0.54036009,0,0,0.54036009,-90.564331,-37.285897)"
       class="st3"
       points="200,110.6 200.6,111 191.4,127.3 190.7,126.9 "
       id="polygon91"
       style="fill:#ffffff" /><rect
       x="14.431176"
       y="24.557337"
       transform="matrix(0.99080459,-0.13530063,0.13530063,0.99080459,0,0)"
       class="st3"
       width="19.182695"
       height="0.43228608"
       id="rect93"
       style="fill:#ffffff" /><rect
       x="-7.610888"
       y="30.865936"
       transform="matrix(0.31700768,-0.94842297,0.94842297,0.31700768,0,0)"
       class="st3"
       width="0.37824291"
       height="10.050455"
       id="rect95"
       style="fill:#ffffff" /><rect
       x="18.969276"
       y="36.824219"
       transform="matrix(0.82781082,-0.56100735,0.56100735,0.82781082,0,0)"
       class="st3"
       width="11.239342"
       height="0.43228242"
       id="rect97"
       style="fill:#ffffff" /><rect
       x="-19.10021"
       y="21.181381"
       transform="matrix(0.17590139,-0.98440779,0.98440779,0.17590139,0,0)"
       class="st3"
       width="10.26676"
       height="0.37824905"
       id="rect99"
       style="fill:#ffffff" /><rect
       x="13.289042"
       y="28.594982"
       transform="matrix(0.83621129,-0.5484074,0.5484074,0.83621129,0,0)"
       class="st3"
       width="10.590915"
       height="0.37824693"
       id="rect101"
       style="fill:#ffffff" /><rect
       x="8.4102526"
       y="28.464972"
       transform="matrix(0.50582216,-0.86263778,0.86263778,0.50582216,0,0)"
       class="st3"
       width="0.43226916"
       height="7.9429455"
       id="rect103"
       style="fill:#ffffff" /><rect
       x="33.628799"
       y="16.258099"
       transform="matrix(0.98772483,-0.15620393,0.15620393,0.98772483,0,0)"
       class="st3"
       width="11.023068"
       height="0.43227723"
       id="rect105"
       style="fill:#ffffff" /><rect
       x="34.654011"
       y="13.658742"
       transform="matrix(0.99713072,-0.07569897,0.07569897,0.99713072,0,0)"
       class="st3"
       width="0.43227479"
       height="9.023736"
       id="rect107"
       style="fill:#ffffff" /><rect
       x="-1.4881755"
       y="37.404453"
       transform="matrix(0.2607982,-0.96539334,0.96539334,0.2607982,0,0)"
       class="st3"
       width="0.37825465"
       height="10.374986"
       id="rect109"
       style="fill:#ffffff" /><rect
       x="-4.1087818"
       y="47.457394"
       transform="matrix(0.20309165,-0.97915973,0.97915973,0.20309165,0,0)"
       class="st3"
       width="4.5392113"
       height="0.37826762"
       id="rect111"
       style="fill:#ffffff" /><rect
       x="0.69909555"
       y="56.068733"
       transform="matrix(0.62833478,-0.77794306,0.77794306,0.62833478,0,0)"
       class="st3"
       width="11.779197"
       height="0.43226415"
       id="rect113"
       style="fill:#ffffff" /><rect
       x="30.863604"
       y="46.900372"
       transform="matrix(0.9496587,-0.31328639,0.31328639,0.9496587,0,0)"
       class="st3"
       width="0.43230689"
       height="8.5920992"
       id="rect115"
       style="fill:#ffffff" /><rect
       x="25.453039"
       y="51.859989"
       transform="matrix(0.9763468,-0.21621036,0.21621036,0.9763468,0,0)"
       class="st3"
       width="11.022817"
       height="0.43226737"
       id="rect117"
       style="fill:#ffffff" /><rect
       x="-16.364292"
       y="57.06601"
       transform="matrix(0.67386145,-0.73885773,0.73885773,0.67386145,0,0)"
       class="st3"
       width="7.2412391"
       height="0.43231282"
       id="rect119"
       style="fill:#ffffff" /><rect
       x="-6.139442"
       y="52.151543"
       transform="matrix(0.7944827,-0.60728679,0.60728679,0.7944827,0,0)"
       class="st3"
       width="0.37826028"
       height="7.1329083"
       id="rect121"
       style="fill:#ffffff" /><rect
       x="-44.309296"
       y="28.422083"
       transform="matrix(0.03347484,-0.99943956,0.99943956,0.03347484,0,0)"
       class="st3"
       width="0.43227097"
       height="9.1857576"
       id="rect123"
       style="fill:#ffffff" /><rect
       x="-35.4981"
       y="46.041058"
       transform="matrix(0.24140602,-0.9704242,0.9704242,0.24140602,0,0)"
       class="st3"
       width="0.43227729"
       height="11.02307"
       id="rect125"
       style="fill:#ffffff" /><rect
       x="-46.242477"
       y="48.139256"
       transform="matrix(0.03384817,-0.99942699,0.99942699,0.03384817,0,0)"
       class="st3"
       width="4.9171443"
       height="0.43227643"
       id="rect127"
       style="fill:#ffffff" /><rect
       x="25.872337"
       y="57.863663"
       transform="matrix(0.91712093,-0.39860909,0.39860909,0.91712093,0,0)"
       class="st3"
       width="8.6455641"
       height="0.37824342"
       id="rect129"
       style="fill:#ffffff" /><rect
       x="26.689322"
       y="57.116577"
       transform="matrix(0.85905945,-0.51187583,0.51187583,0.85905945,0,0)"
       class="st3"
       width="0.4323085"
       height="4.8634706"
       id="rect131"
       style="fill:#ffffff" /><rect
       x="-32.184502"
       y="46.296734"
       transform="matrix(0.06209911,-0.99806999,0.99806999,0.06209911,0,0)"
       class="st3"
       width="0.4323011"
       height="8.1596832"
       id="rect133"
       style="fill:#ffffff" /><rect
       x="29.308676"
       y="55.691418"
       transform="matrix(0.88041329,-0.47420716,0.47420716,0.88041329,0,0)"
       class="st3"
       width="5.6196594"
       height="0.37824634"
       id="rect135"
       style="fill:#ffffff" /><rect
       x="23.686384"
       y="52.436214"
       transform="matrix(0.77633113,-0.63032529,0.63032529,0.77633113,0,0)"
       class="st3"
       width="0.37823689"
       height="9.0236521"
       id="rect137"
       style="fill:#ffffff" /><rect
       x="49.352768"
       y="29.438992"
       transform="matrix(0.9972382,-0.07426966,0.07426966,0.9972382,0,0)"
       class="st3"
       width="0.43227151"
       height="9.6720753"
       id="rect139"
       style="fill:#ffffff" /><rect
       x="-1.8221656"
       y="57.383118"
       transform="matrix(0.41671669,-0.90903641,0.90903641,0.41671669,0,0)"
       class="st3"
       width="6.1598582"
       height="0.37823692"
       id="rect141"
       style="fill:#ffffff" /><polygon
       transform="matrix(0.54036009,0,0,0.54036009,-90.564331,-37.285897)"
       class="st7"
       points="245.5,110.3 235.9,106.7 239.6,113.7 "
       id="polygon143"
       style="fill:none" /><polygon
       transform="matrix(0.54036009,0,0,0.54036009,-90.564331,-37.285897)"
       class="st7"
       points="262.2,115.7 260.6,110.3 255.5,113.3 "
       id="polygon145"
       style="fill:none" /><polygon
       transform="matrix(0.54036009,0,0,0.54036009,-90.564331,-37.285897)"
       class="st3"
       points="261.3,109.9 260.6,110.3 262.2,115.7 263,116.1 "
       id="polygon147"
       style="fill:#ffffff" /><polygon
       transform="matrix(0.54036009,0,0,0.54036009,-90.564331,-37.285897)"
       class="st3"
       points="258.4,102.8 259.1,102.4 254.4,86 253.7,86.2 "
       id="polygon149"
       style="fill:#ffffff" /><polygon
       transform="matrix(0.54036009,0,0,0.54036009,-90.564331,-37.285897)"
       class="st3"
       points="238.9,114.1 239.6,113.7 235.9,106.7 235,106.4 235.1,106 234.8,106.2 "
       id="polygon151"
       style="fill:#ffffff" /><polygon
       transform="matrix(0.54036009,0,0,0.54036009,-90.564331,-37.285897)"
       class="st3"
       points="243.1,120.5 242.4,120.8 249.1,133.6 249.7,133.3 "
       id="polygon153"
       style="fill:#ffffff" /><polygon
       transform="matrix(0.54036009,0,0,0.54036009,-90.564331,-37.285897)"
       class="st3"
       points="263.2,116.1 263,116.1 263.1,116.3 262.4,116.5 262.2,115.7 255.5,113.3 254.7,113.7 263,116.8 "
       id="polygon155"
       style="fill:#ffffff" /><polygon
       transform="matrix(0.54036009,0,0,0.54036009,-90.564331,-37.285897)"
       class="st3"
       points="235.1,106 235.5,105.8 235.9,106.7 245.5,110.3 246.3,109.8 235.3,105.6 "
       id="polygon157"
       style="fill:#ffffff" /><polygon
       transform="matrix(0.54036009,0,0,0.54036009,-90.564331,-37.285897)"
       class="st3"
       points="263,116.1 262.2,115.7 262.4,116.5 263.1,116.3 "
       id="polygon159"
       style="fill:#ffffff" /><polygon
       transform="matrix(0.54036009,0,0,0.54036009,-90.564331,-37.285897)"
       class="st3"
       points="235.1,106 235,106.4 235.9,106.7 235.5,105.8 "
       id="polygon161"
       style="fill:#ffffff" /><polygon
       transform="matrix(0.54036009,0,0,0.54036009,-90.564331,-37.285897)"
       class="st3"
       points="235.1,137.6 234.3,139.3 234.1,152.9 234.9,152.9 "
       id="polygon163"
       style="fill:#ffffff" /><polygon
       transform="matrix(0.54036009,0,0,0.54036009,-90.564331,-37.285897)"
       class="st3"
       points="234.6,116.6 235.4,116.1 235.5,106 234.8,106 "
       id="polygon165"
       style="fill:#ffffff" /><g
       transform="matrix(0.54036009,0,0,0.54036009,-90.564331,-37.285897)"
       id="g167"><path
         class="st3"
         d="m 212,120 4.3,0 0,15.7 9.8,0 0,3.9 -14.1,0 0,-19.6 z"
         id="path169"
         inkscape:connector-curvature="0"
         style="fill:#ffffff" /></g></g></svg>